<?xml version="1.0" encoding="utf-8"?>
<!-- Generator: Adobe Illustrator 13.0.0, SVG Export Plug-In . SVG Version: 6.00 Build 14948)  -->
<!DOCTYPE svg PUBLIC "-//W3C//DTD SVG 1.1//EN" "http://www.w3.org/Graphics/SVG/1.1/DTD/svg11.dtd">
<svg version="1.1" id="Layer_1" xmlns="http://www.w3.org/2000/svg" xmlns:xlink="http://www.w3.org/1999/xlink" x="0px" y="0px"
	 width="333.5px" height="157.5px" viewBox="-9.5 -11.3 333.5 157.5" enable-background="new -9.5 -11.3 333.5 157.5"
	 xml:space="preserve">
<g>
	<path fill="#E5E5E5" d="M133.6,67.4c0,3.3-5.1,6.1-5.6,9.2c-0.5,3.2,3.5,7.5,2.5,10.5c-1,3.1-6.8,4.2-8.2,7
		c-1.5,2.9,1,8.2-0.9,10.8c-1.9,2.6-7.7,1.9-10,4.1c-2.3,2.3-1.5,8.1-4.1,10c-2.6,1.9-7.9-0.6-10.8,0.9c-2.8,1.5-3.9,7.2-7,8.2
		c-3,1-7.3-3-10.5-2.5c-3.1,0.5-5.9,5.6-9.2,5.6s-6.1-5.1-9.2-5.6c-3.2-0.5-7.5,3.5-10.5,2.5c-3.1-1-4.2-6.8-7-8.2
		c-2.9-1.5-8.2,1-10.8-0.9c-2.6-1.9-1.9-7.7-4.1-10c-2.3-2.3-8.1-1.5-10-4.1c-1.9-2.6,0.6-7.9-0.9-10.8c-1.5-2.8-7.2-3.9-8.2-7
		c-1-3,3-7.3,2.5-10.5C11.2,73.5,6,70.7,6,67.4c0-3.3,5.1-6.1,5.6-9.2c0.5-3.2-3.5-7.5-2.5-10.5c1-3.1,6.8-4.2,8.2-7
		c1.5-2.9-1-8.2,0.9-10.8c1.9-2.6,7.7-1.9,10-4.1c2.3-2.3,1.5-8.1,4.1-10c2.6-1.9,7.9,0.6,10.8-0.9c2.8-1.5,3.9-7.2,7-8.2
		c3-1,7.3,3,10.5,2.5c3.1-0.5,5.9-5.6,9.2-5.6s6.1,5.1,9.2,5.6c3.2,0.5,7.5-3.5,10.5-2.5c3.1,1,4.2,6.8,7,8.2
		c2.9,1.5,8.2-1,10.8,0.9c2.6,1.9,1.9,7.7,4.1,10c2.3,2.3,8.1,1.5,10,4.1c1.9,2.6-0.6,7.9,0.9,10.8c1.5,2.8,7.2,3.9,8.2,7
		c1,3-3,7.3-2.5,10.5C128.5,61.3,133.6,64.1,133.6,67.4z"/>
	<path fill="#E5E5E5" d="M133.6,67.4c0,3.3-5.1,6.1-5.6,9.2c-0.5,3.2,3.5,7.5,2.5,10.5c-1,3.1-6.8,4.2-8.2,7
		c-1.5,2.9,1,8.2-0.9,10.8c-1.9,2.6-7.7,1.9-10,4.1c-2.3,2.3-1.5,8.1-4.1,10c-2.6,1.9-7.9-0.6-10.8,0.9c-2.8,1.5-3.9,7.2-7,8.2
		c-3,1-7.3-3-10.5-2.5c-3.1,0.5-5.9,5.6-9.2,5.6s-6.1-5.1-9.2-5.6c-3.2-0.5-7.5,3.5-10.5,2.5c-3.1-1-4.2-6.8-7-8.2
		c-2.9-1.5-8.2,1-10.8-0.9c-2.6-1.9-1.9-7.7-4.1-10c-2.3-2.3-8.1-1.5-10-4.1c-1.9-2.6,0.6-7.9-0.9-10.8c-1.5-2.8-7.2-3.9-8.2-7
		c-1-3,3-7.3,2.5-10.5C11.2,73.5,6,70.7,6,67.4c0-3.3,5.1-6.1,5.6-9.2c0.5-3.2-3.5-7.5-2.5-10.5c1-3.1,6.8-4.2,8.2-7
		c1.5-2.9-1-8.2,0.9-10.8c1.9-2.6,7.7-1.9,10-4.1c2.3-2.3,1.5-8.1,4.1-10c2.6-1.9,7.9,0.6,10.8-0.9c2.8-1.5,3.9-7.2,7-8.2
		c3-1,7.3,3,10.5,2.5c3.1-0.5,5.9-5.6,9.2-5.6s6.1,5.1,9.2,5.6c3.2,0.5,7.5-3.5,10.5-2.5c3.1,1,4.2,6.8,7,8.2
		c2.9,1.5,8.2-1,10.8,0.9c2.6,1.9,1.9,7.7,4.1,10c2.3,2.3,8.1,1.5,10,4.1c1.9,2.6-0.6,7.9,0.9,10.8c1.5,2.8,7.2,3.9,8.2,7
		c1,3-3,7.3-2.5,10.5C128.5,61.3,133.6,64.1,133.6,67.4z"/>
</g>
<circle fill="none" stroke="#FFFFFF" cx="69.8" cy="67.4" r="49.3"/>
<g id="BG">
</g>
<g id="Spacers">
</g>
<g id="KeyBack">
</g>
<path fill="none" stroke="#000000" stroke-width="0.81" stroke-linecap="round" stroke-linejoin="round" d="M271.7,65.4
	c-0.6-0.6-1.4-1-2.3-1c-1.7,0-3.1,1.4-3.1,3.1c0,1.7,1.4,3.1,3.1,3.1c1,0,1.9-0.5,2.5-1.3v-1.8h-1.2"/>
<path fill="none" stroke="#000000" stroke-width="0.81" stroke-linecap="round" stroke-linejoin="round" d="M290.5,64.4
	c1.3,0,2.4,1.4,2.4,3.1c0,1.7-1.1,3-2.4,3l-2.2,0v-6.1L290.5,64.4z"/>
<polyline fill="none" stroke="#000000" stroke-width="0.81" stroke-linecap="round" stroke-linejoin="round" points="278.6,64.4 
	274.7,64.4 274.7,70.5 278.6,70.5 "/>
<line fill="none" stroke="#000000" stroke-width="0.81" stroke-linecap="round" stroke-linejoin="round" x1="277.5" y1="67.2" x2="274.7" y2="67.2"/>
<polyline fill="none" stroke="#000000" stroke-width="0.81" stroke-linecap="round" stroke-linejoin="round" points="264.4,64.4 
	260.5,64.4 260.5,70.5 264.4,70.5 "/>
<line fill="none" stroke="#000000" stroke-width="0.81" stroke-linecap="round" stroke-linejoin="round" x1="263.2" y1="67.2" x2="260.5" y2="67.2"/>
<polyline fill="none" stroke="#000000" stroke-width="0.81" stroke-linecap="round" stroke-linejoin="round" points="280.8,70.5 
	280.8,64.4 285.3,70.5 285.3,64.4 "/>
<polyline fill="none" stroke="#000000" stroke-width="0.81" stroke-linecap="round" stroke-linejoin="round" points="254,64.4 
	254,70.5 257.4,70.5 "/>
<path fill="none" stroke="#000000" stroke-width="0.81" stroke-linecap="round" stroke-linejoin="round" d="M225.4,69.7
	c-0.5,0.5-1.3,0.8-2.1,0.8c-1.7,0-3.1-1.4-3.1-3.1c0-1.7,1.4-3.1,3.1-3.1c0.8,0,1.5,0.3,2.1,0.8"/>
<path fill="none" stroke="#000000" stroke-width="0.81" stroke-linecap="round" stroke-linejoin="round" d="M199.8,67.4h2.3
	c0.8,0,1.5-0.7,1.5-1.5c0-0.8-0.7-1.5-1.5-1.5h-2.3v6.1"/>
<polyline fill="none" stroke="#000000" stroke-width="0.81" stroke-linecap="round" stroke-linejoin="round" points="227.2,70.5 
	229.8,64.4 232.3,70.5 "/>
<line fill="none" stroke="#000000" stroke-width="0.81" stroke-linecap="round" stroke-linejoin="round" x1="227.9" y1="68.9" x2="231.6" y2="68.9"/>
<polyline fill="none" stroke="#000000" stroke-width="0.81" stroke-linecap="round" stroke-linejoin="round" points="205,70.5 
	207.6,64.4 210.1,70.5 "/>
<line fill="none" stroke="#000000" stroke-width="0.81" stroke-linecap="round" stroke-linejoin="round" x1="205.7" y1="68.9" x2="209.5" y2="68.9"/>
<polyline fill="none" stroke="#000000" stroke-width="0.81" stroke-linecap="round" stroke-linejoin="round" points="247.3,64.4 
	243.4,64.4 243.4,70.5 247.3,70.5 "/>
<line fill="none" stroke="#000000" stroke-width="0.81" stroke-linecap="round" stroke-linejoin="round" x1="246.2" y1="67.2" x2="243.4" y2="67.2"/>
<polyline fill="none" stroke="#000000" stroke-width="0.81" stroke-linecap="round" stroke-linejoin="round" points="213,70.5 
	213,64.4 217.5,70.5 217.5,64.4 "/>
<g>
	
		<line fill="none" stroke="#000000" stroke-width="0.81" stroke-linecap="round" stroke-linejoin="round" x1="235.5" y1="70.5" x2="235.5" y2="64.4"/>
	
		<line fill="none" stroke="#000000" stroke-width="0.81" stroke-linecap="round" stroke-linejoin="round" x1="240.1" y1="64.4" x2="235.5" y2="68.4"/>
	
		<line fill="none" stroke="#000000" stroke-width="0.81" stroke-linecap="round" stroke-linejoin="round" x1="240.1" y1="70.5" x2="237.2" y2="66.9"/>
</g>
<line fill="none" stroke="#000000" stroke-width="1.35" stroke-linecap="round" x1="49.2" y1="78.8" x2="58.2" y2="67.2"/>
<path fill="none" stroke="#000000" stroke-width="2" stroke-linecap="round" stroke-linejoin="round" d="M64.2,66.8H73
	c3.3,0,6-2.7,6-6c0-3.3-2.7-6-6-6h-8.8v24"/>
<polyline fill="none" stroke="#000000" stroke-width="2" stroke-linecap="round" stroke-linejoin="round" points="87.3,54.8 
	87.3,78.8 100.6,78.8 "/>
<path fill="none" stroke="#000000" stroke-width="1.35" stroke-linecap="round" stroke-linejoin="round" d="M44.2,67.2v7.1
	c0,2.4-2,4.4-4.4,4.4c-2.4,0-4.4-2-4.4-4.4v-7.1"/>
</svg>
