<?xml version="1.0" encoding="utf-8"?>
<!-- Generator: Adobe Illustrator 13.0.0, SVG Export Plug-In . SVG Version: 6.00 Build 14948)  -->
<!DOCTYPE svg PUBLIC "-//W3C//DTD SVG 1.1//EN" "http://www.w3.org/Graphics/SVG/1.1/DTD/svg11.dtd">
<svg version="1.1" xmlns="http://www.w3.org/2000/svg" xmlns:xlink="http://www.w3.org/1999/xlink" x="0px" y="0px"
	 width="139.67px" height="152px" viewBox="0 0 139.67 152" enable-background="new 0 0 139.67 152" xml:space="preserve">
<g id="BG">
</g>
<g id="Spacers">
</g>
<g id="KeyBack">
</g>
<g id="Legends__x28_Line_x29_">
	<g>
		<g>
			<path fill="none" stroke="#000000" stroke-width="0.81" stroke-linecap="round" stroke-linejoin="round" d="M95.23,142.73
				c-0.56-0.62-1.37-1-2.26-1c-1.69,0-3.06,1.37-3.06,3.06s1.37,3.06,3.06,3.06c1.02,0,1.92-0.5,2.47-1.26v-1.8h-1.16"/>
			<path fill="none" stroke="#000000" stroke-width="0.81" stroke-linecap="round" stroke-linejoin="round" d="M113.98,141.72
				c1.29,0,2.4,1.38,2.4,3.07c0,1.69-1.11,3.04-2.4,3.04l-2.17,0.01v-6.11L113.98,141.72z"/>
			<g>
				<polyline fill="none" stroke="#000000" stroke-width="0.81" stroke-linecap="round" stroke-linejoin="round" points="
					102.16,141.73 98.25,141.73 98.25,147.83 102.16,147.83 				"/>
				
					<line fill="none" stroke="#000000" stroke-width="0.81" stroke-linecap="round" stroke-linejoin="round" x1="101.01" y1="144.59" x2="98.25" y2="144.59"/>
			</g>
			<g>
				<polyline fill="none" stroke="#000000" stroke-width="0.81" stroke-linecap="round" stroke-linejoin="round" points="
					87.91,141.73 84,141.73 84,147.83 87.91,147.83 				"/>
				
					<line fill="none" stroke="#000000" stroke-width="0.81" stroke-linecap="round" stroke-linejoin="round" x1="86.75" y1="144.59" x2="84" y2="144.59"/>
			</g>
			<polyline fill="none" stroke="#000000" stroke-width="0.81" stroke-linecap="round" stroke-linejoin="round" points="
				104.31,147.84 104.31,141.73 108.8,147.84 108.8,141.73 			"/>
			<polyline fill="none" stroke="#000000" stroke-width="0.81" stroke-linecap="round" stroke-linejoin="round" points="
				77.53,141.73 77.53,147.84 80.93,147.84 			"/>
		</g>
		<g>
			<path fill="none" stroke="#000000" stroke-width="0.81" stroke-linecap="round" stroke-linejoin="round" d="M48.9,147.05
				c-0.54,0.49-1.27,0.79-2.06,0.79c-1.69,0-3.06-1.37-3.06-3.06c0-1.69,1.37-3.06,3.06-3.06c0.79,0,1.51,0.3,2.06,0.8"/>
			<path fill="none" stroke="#000000" stroke-width="0.81" stroke-linecap="round" stroke-linejoin="round" d="M23.28,144.78h2.25
				c0.84,0,1.53-0.69,1.53-1.53c0-0.84-0.68-1.53-1.53-1.53h-2.25v6.12"/>
			<g>
				<polyline fill="none" stroke="#000000" stroke-width="0.81" stroke-linecap="round" stroke-linejoin="round" points="
					50.75,147.83 53.29,141.73 55.83,147.83 				"/>
				
					<line fill="none" stroke="#000000" stroke-width="0.81" stroke-linecap="round" stroke-linejoin="round" x1="51.42" y1="146.23" x2="55.17" y2="146.23"/>
			</g>
			<g>
				<polyline fill="none" stroke="#000000" stroke-width="0.81" stroke-linecap="round" stroke-linejoin="round" points="
					28.57,147.83 31.1,141.73 33.64,147.83 				"/>
				
					<line fill="none" stroke="#000000" stroke-width="0.81" stroke-linecap="round" stroke-linejoin="round" x1="29.23" y1="146.23" x2="32.98" y2="146.23"/>
			</g>
			<g>
				<polyline fill="none" stroke="#000000" stroke-width="0.81" stroke-linecap="round" stroke-linejoin="round" points="
					70.84,141.73 66.93,141.73 66.93,147.83 70.84,147.83 				"/>
				
					<line fill="none" stroke="#000000" stroke-width="0.81" stroke-linecap="round" stroke-linejoin="round" x1="69.69" y1="144.59" x2="66.93" y2="144.59"/>
			</g>
			<polyline fill="none" stroke="#000000" stroke-width="0.81" stroke-linecap="round" stroke-linejoin="round" points="
				36.49,147.84 36.49,141.73 40.98,147.84 40.98,141.73 			"/>
			<g>
				
					<line fill="none" stroke="#000000" stroke-width="0.81" stroke-linecap="round" stroke-linejoin="round" x1="59" y1="147.84" x2="59" y2="141.73"/>
				
					<line fill="none" stroke="#000000" stroke-width="0.81" stroke-linecap="round" stroke-linejoin="round" x1="63.65" y1="141.73" x2="59" y2="145.74"/>
				
					<line fill="none" stroke="#000000" stroke-width="0.81" stroke-linecap="round" stroke-linejoin="round" x1="63.65" y1="147.84" x2="60.69" y2="144.28"/>
			</g>
		</g>
	</g>
	<g>
		<line fill="none" stroke="#000000" stroke-width="1.35" stroke-linecap="round" x1="49.18" y1="79.01" x2="58.22" y2="67.45"/>
		<path fill="none" stroke="#000000" stroke-width="2" stroke-linecap="round" stroke-linejoin="round" d="M64.23,67.01h8.82
			c3.32,0,6-2.69,6-6s-2.68-6-6-6h-8.82v24"/>
		<polyline fill="none" stroke="#000000" stroke-width="2" stroke-linecap="round" stroke-linejoin="round" points="87.28,55.01 
			87.28,79.01 100.62,79.01 		"/>
		<path fill="none" stroke="#000000" stroke-width="1.35" stroke-linecap="round" stroke-linejoin="round" d="M44.22,67.48v7.12
			c0,2.44-1.98,4.41-4.41,4.41c-2.44,0-4.41-1.97-4.41-4.41v-7.12"/>
		<g>
			<path fill="none" stroke="#000000" stroke-width="0.5" stroke-linecap="round" stroke-linejoin="round" d="M133.62,67.65
				c0,3.27-5.13,6.09-5.62,9.22c-0.5,3.21,3.5,7.48,2.52,10.5c-1,3.08-6.75,4.18-8.21,7.02c-1.47,2.87,1.02,8.17-0.87,10.76
				c-1.89,2.6-7.7,1.87-9.97,4.14s-1.54,8.08-4.14,9.97c-2.59,1.88-7.89-0.6-10.76,0.87c-2.84,1.45-3.94,7.21-7.02,8.21
				c-3.02,0.98-7.29-3.02-10.5-2.52c-3.13,0.49-5.95,5.62-9.22,5.62s-6.09-5.13-9.22-5.62c-3.21-0.5-7.48,3.5-10.5,2.52
				c-3.08-1-4.18-6.75-7.02-8.21c-2.87-1.47-8.17,1.02-10.76-0.87c-2.6-1.89-1.87-7.7-4.14-9.97s-8.08-1.54-9.97-4.14
				c-1.88-2.59,0.6-7.89-0.87-10.76c-1.45-2.84-7.21-3.94-8.21-7.02c-0.98-3.02,3.02-7.29,2.52-10.5c-0.49-3.13-5.62-5.95-5.62-9.22
				s5.13-6.09,5.62-9.22c0.5-3.21-3.5-7.48-2.52-10.5c1-3.08,6.75-4.18,8.21-7.02c1.47-2.87-1.02-8.17,0.87-10.76
				c1.89-2.6,7.7-1.87,9.97-4.14c2.27-2.27,1.54-8.08,4.14-9.97c2.59-1.88,7.89,0.6,10.76-0.87c2.84-1.45,3.94-7.21,7.02-8.21
				c3.02-0.98,7.29,3.02,10.5,2.52c3.13-0.49,5.95-5.62,9.22-5.62s6.09,5.13,9.22,5.62c3.21,0.5,7.48-3.5,10.5-2.52
				c3.08,1,4.18,6.75,7.02,8.21c2.87,1.47,8.17-1.02,10.76,0.87c2.6,1.89,1.87,7.7,4.14,9.97s8.08,1.54,9.97,4.14
				c1.88,2.59-0.6,7.89,0.87,10.76c1.45,2.84,7.21,3.94,8.21,7.02c0.98,3.02-3.02,7.29-2.52,10.5
				C128.49,61.56,133.62,64.39,133.62,67.65z"/>
		</g>
		
			<circle fill="none" stroke="#000000" stroke-width="0.5" stroke-linecap="round" stroke-linejoin="round" cx="69.83" cy="67.65" r="49.27"/>
	</g>
</g>
</svg>
