<?xml version="1.0" encoding="utf-8"?>
<!-- Generator: Adobe Illustrator 13.0.0, SVG Export Plug-In . SVG Version: 6.00 Build 14948)  -->
<!DOCTYPE svg PUBLIC "-//W3C//DTD SVG 1.1//EN" "http://www.w3.org/Graphics/SVG/1.1/DTD/svg11.dtd">
<svg version="1.1" id="Layer_1" xmlns="http://www.w3.org/2000/svg" xmlns:xlink="http://www.w3.org/1999/xlink" x="0px" y="0px"
	 width="766.38px" height="774.62px" viewBox="0 0 766.38 774.62" enable-background="new 0 0 766.38 774.62" xml:space="preserve">
<g>
	<path fill="#E5E5E5" d="M751,24.17c0-4.98-4.04-9.01-9.01-9.01l0,0H24.4c-4.98,0-9.01,4.03-9.01,9.01l0,0v216.29
		c0,4.98,4.04,9.01,9.02,9.01l0,0h717.59c4.98,0,9.01-4.04,9.01-9.01l0,0V24.17z"/>
	<path fill="#FFFFFF" d="M101.92,25.97h36.06c3.98,0,7.21,3.23,7.21,7.21l0,0v36.05c0,3.98-3.23,7.21-7.21,7.21l0,0h-36.06
		c-3.98,0-7.21-3.23-7.21-7.21l0,0V33.18C94.71,29.2,97.94,25.97,101.92,25.97L101.92,25.97z M156.01,25.97h36.06
		c3.98,0,7.21,3.23,7.21,7.21l0,0v36.05c0,3.98-3.23,7.21-7.21,7.21l0,0h-36.06c-3.98,0-7.21-3.23-7.21-7.21l0,0V33.18
		C148.8,29.2,152.03,25.97,156.01,25.97L156.01,25.97z M210.1,25.97h36.06c3.98,0,7.21,3.23,7.21,7.21l0,0v36.05
		c0,3.98-3.23,7.21-7.21,7.21l0,0H210.1c-3.98,0-7.21-3.23-7.21-7.21l0,0V33.18C202.89,29.2,206.12,25.97,210.1,25.97L210.1,25.97z
		 M210.1,80.04h36.06c3.98,0,7.21,3.23,7.21,7.21l0,0v36.05c0,3.98-3.23,7.21-7.21,7.21l0,0H210.1c-3.98,0-7.21-3.23-7.21-7.21l0,0
		V87.25C202.89,83.27,206.12,80.04,210.1,80.04L210.1,80.04z M156.01,80.04h36.06c3.98,0,7.21,3.23,7.21,7.21l0,0v36.05
		c0,3.98-3.23,7.21-7.21,7.21l0,0h-36.06c-3.98,0-7.21-3.23-7.21-7.21l0,0V87.25C148.8,83.27,152.03,80.04,156.01,80.04
		L156.01,80.04z M101.92,80.04h36.06c3.98,0,7.21,3.23,7.21,7.21l0,0v36.05c0,3.98-3.23,7.21-7.21,7.21l0,0h-36.06
		c-3.98,0-7.21-3.23-7.21-7.21l0,0V87.25C94.71,83.27,97.94,80.04,101.92,80.04L101.92,80.04z M101.92,134.12h36.06
		c3.98,0,7.21,3.23,7.21,7.21l0,0v36.05c0,3.98-3.23,7.21-7.21,7.21l0,0h-36.06c-3.98,0-7.21-3.23-7.21-7.21l0,0v-36.05
		C94.71,137.34,97.94,134.12,101.92,134.12L101.92,134.12z M156.01,134.12h36.06c3.98,0,7.21,3.23,7.21,7.21l0,0v36.05
		c0,3.98-3.23,7.21-7.21,7.21l0,0h-36.06c-3.98,0-7.21-3.23-7.21-7.21l0,0v-36.05C148.8,137.34,152.03,134.12,156.01,134.12
		L156.01,134.12z M210.1,134.12h36.06c3.98,0,7.21,3.23,7.21,7.21l0,0v36.05c0,3.98-3.23,7.21-7.21,7.21l0,0H210.1
		c-3.98,0-7.21-3.23-7.21-7.21l0,0v-36.05C202.89,137.34,206.12,134.12,210.1,134.12L210.1,134.12z M101.92,188.19h36.06
		c3.98,0,7.21,3.23,7.21,7.21l0,0v36.05c0,3.98-3.23,7.21-7.21,7.21l0,0h-36.06c-3.98,0-7.21-3.23-7.21-7.21l0,0V195.4
		C94.71,191.42,97.94,188.19,101.92,188.19L101.92,188.19z M156.01,188.19h36.06c3.98,0,7.21,3.23,7.21,7.21l0,0v36.05
		c0,3.98-3.23,7.21-7.21,7.21l0,0h-36.06c-3.98,0-7.21-3.23-7.21-7.21l0,0V195.4C148.8,191.42,152.03,188.19,156.01,188.19
		L156.01,188.19z M210.1,188.19h36.06c3.98,0,7.21,3.23,7.21,7.21l0,0v36.05c0,3.98-3.23,7.21-7.21,7.21l0,0H210.1
		c-3.98,0-7.21-3.23-7.21-7.21l0,0V195.4C202.89,191.42,206.12,188.19,210.1,188.19L210.1,188.19z M264.19,25.97h36.06
		c3.98,0,7.21,3.23,7.21,7.21l0,0v36.05c0,3.98-3.23,7.21-7.21,7.21l0,0h-36.06c-3.98,0-7.21-3.23-7.21-7.21l0,0V33.18
		C256.98,29.2,260.21,25.97,264.19,25.97L264.19,25.97z M318.28,25.97h36.06c3.98,0,7.21,3.23,7.21,7.21l0,0v36.05
		c0,3.98-3.23,7.21-7.21,7.21l0,0h-36.06c-3.98,0-7.21-3.23-7.21-7.21l0,0V33.18C311.07,29.2,314.3,25.97,318.28,25.97L318.28,25.97
		z M264.19,80.04h36.06c3.98,0,7.21,3.23,7.21,7.21l0,0v36.05c0,3.98-3.23,7.21-7.21,7.21l0,0h-36.06c-3.98,0-7.21-3.23-7.21-7.21
		l0,0V87.25C256.98,83.27,260.21,80.04,264.19,80.04L264.19,80.04z M318.28,80.04h36.06c3.98,0,7.21,3.23,7.21,7.21l0,0v36.05
		c0,3.98-3.23,7.21-7.21,7.21l0,0h-36.06c-3.98,0-7.21-3.23-7.21-7.21l0,0V87.25C311.07,83.27,314.3,80.04,318.28,80.04
		L318.28,80.04z M264.19,134.12h36.06c3.98,0,7.21,3.23,7.21,7.21l0,0v36.05c0,3.98-3.23,7.21-7.21,7.21l0,0h-36.06
		c-3.98,0-7.21-3.23-7.21-7.21l0,0v-36.05C256.98,137.34,260.21,134.12,264.19,134.12L264.19,134.12z M318.28,134.12h36.06
		c3.98,0,7.21,3.23,7.21,7.21l0,0v36.05c0,3.98-3.23,7.21-7.21,7.21l0,0h-36.06c-3.98,0-7.21-3.23-7.21-7.21l0,0v-36.05
		C311.07,137.34,314.3,134.12,318.28,134.12L318.28,134.12z M264.19,188.19h36.06c3.98,0,7.21,3.23,7.21,7.21l0,0v36.05
		c0,3.98-3.23,7.21-7.21,7.21l0,0h-36.06c-3.98,0-7.21-3.23-7.21-7.21l0,0V195.4C256.98,191.42,260.21,188.19,264.19,188.19
		L264.19,188.19z M318.28,188.19h36.06c3.98,0,7.21,3.23,7.21,7.21l0,0v36.05c0,3.98-3.23,7.21-7.21,7.21l0,0h-36.06
		c-3.98,0-7.21-3.23-7.21-7.21l0,0V195.4C311.07,191.42,314.3,188.19,318.28,188.19L318.28,188.19z M372.37,25.97h36.06
		c3.98,0,7.21,3.23,7.21,7.21l0,0v36.05c0,3.98-3.23,7.21-7.21,7.21l0,0h-36.06c-3.98,0-7.21-3.23-7.21-7.21l0,0V33.18
		C365.16,29.2,368.39,25.97,372.37,25.97L372.37,25.97z M426.46,25.97h36.06c3.98,0,7.21,3.23,7.21,7.21l0,0v36.05
		c0,3.98-3.23,7.21-7.21,7.21l0,0h-36.06c-3.98,0-7.21-3.23-7.21-7.21l0,0V33.18C419.25,29.2,422.48,25.97,426.46,25.97
		L426.46,25.97z M372.37,80.04h36.06c3.98,0,7.21,3.23,7.21,7.21l0,0v36.05c0,3.98-3.23,7.21-7.21,7.21l0,0h-36.06
		c-3.98,0-7.21-3.23-7.21-7.21l0,0V87.25C365.16,83.27,368.39,80.04,372.37,80.04L372.37,80.04z M426.46,80.04h36.06
		c3.98,0,7.21,3.23,7.21,7.21l0,0v36.05c0,3.98-3.23,7.21-7.21,7.21l0,0h-36.06c-3.98,0-7.21-3.23-7.21-7.21l0,0V87.25
		C419.25,83.27,422.48,80.04,426.46,80.04L426.46,80.04z M372.37,134.12h36.06c3.98,0,7.21,3.23,7.21,7.21l0,0v36.05
		c0,3.98-3.23,7.21-7.21,7.21l0,0h-36.06c-3.98,0-7.21-3.23-7.21-7.21l0,0v-36.05C365.16,137.34,368.39,134.12,372.37,134.12
		L372.37,134.12z M426.46,134.12h36.06c3.98,0,7.21,3.23,7.21,7.21l0,0v36.05c0,3.98-3.23,7.21-7.21,7.21l0,0h-36.06
		c-3.98,0-7.21-3.23-7.21-7.21l0,0v-36.05C419.25,137.34,422.48,134.12,426.46,134.12L426.46,134.12z M480.55,25.97h36.06
		c3.98,0,7.21,3.23,7.21,7.21l0,0v36.05c0,3.98-3.23,7.21-7.21,7.21l0,0h-36.06c-3.98,0-7.21-3.23-7.21-7.21l0,0V33.18
		C473.34,29.2,476.57,25.97,480.55,25.97L480.55,25.97z M534.64,25.97h36.06c3.98,0,7.21,3.23,7.21,7.21l0,0v36.05
		c0,3.98-3.23,7.21-7.21,7.21l0,0h-36.06c-3.98,0-7.21-3.23-7.21-7.21l0,0V33.18C527.43,29.2,530.66,25.97,534.64,25.97
		L534.64,25.97z M480.55,80.04h36.06c3.98,0,7.21,3.23,7.21,7.21l0,0v36.05c0,3.98-3.23,7.21-7.21,7.21l0,0h-36.06
		c-3.98,0-7.21-3.23-7.21-7.21l0,0V87.25C473.34,83.27,476.57,80.04,480.55,80.04L480.55,80.04z M534.64,80.04h36.06
		c3.98,0,7.21,3.23,7.21,7.21l0,0v36.05c0,3.98-3.23,7.21-7.21,7.21l0,0h-36.06c-3.98,0-7.21-3.23-7.21-7.21l0,0V87.25
		C527.43,83.27,530.66,80.04,534.64,80.04L534.64,80.04z M480.55,134.12h36.06c3.98,0,7.21,3.23,7.21,7.21l0,0v36.05
		c0,3.98-3.23,7.21-7.21,7.21l0,0h-36.06c-3.98,0-7.21-3.23-7.21-7.21l0,0v-36.05C473.34,137.34,476.57,134.12,480.55,134.12
		L480.55,134.12z M534.64,134.12h36.06c3.98,0,7.21,3.23,7.21,7.21l0,0v36.05c0,3.98-3.23,7.21-7.21,7.21l0,0h-36.06
		c-3.98,0-7.21-3.23-7.21-7.21l0,0v-36.05C527.43,137.34,530.66,134.12,534.64,134.12L534.64,134.12z M480.55,188.19h36.06
		c3.98,0,7.21,3.23,7.21,7.21l0,0v36.05c0,3.98-3.23,7.21-7.21,7.21l0,0h-36.06c-3.98,0-7.21-3.23-7.21-7.21l0,0V195.4
		C473.34,191.42,476.57,188.19,480.55,188.19L480.55,188.19z M534.64,188.19h36.06c3.98,0,7.21,3.23,7.21,7.21l0,0v36.05
		c0,3.98-3.23,7.21-7.21,7.21l0,0h-36.06c-3.98,0-7.21-3.23-7.21-7.21l0,0V195.4C527.43,191.42,530.66,188.19,534.64,188.19
		L534.64,188.19z M588.73,25.97h36.06c3.98,0,7.21,3.23,7.21,7.21l0,0v36.05c0,3.98-3.23,7.21-7.21,7.21l0,0h-36.06
		c-3.98,0-7.21-3.23-7.21-7.21l0,0V33.18C581.52,29.2,584.75,25.97,588.73,25.97L588.73,25.97z M642.82,25.97h36.06
		c3.98,0,7.21,3.23,7.21,7.21l0,0v36.05c0,3.98-3.23,7.21-7.21,7.21l0,0h-36.06c-3.98,0-7.21-3.23-7.21-7.21l0,0V33.18
		C635.61,29.2,638.84,25.97,642.82,25.97L642.82,25.97z M588.73,80.04h36.06c3.98,0,7.21,3.23,7.21,7.21l0,0v36.05
		c0,3.98-3.23,7.21-7.21,7.21l0,0h-36.06c-3.98,0-7.21-3.23-7.21-7.21l0,0V87.25C581.52,83.27,584.75,80.04,588.73,80.04
		L588.73,80.04z M642.82,80.04h36.06c3.98,0,7.21,3.23,7.21,7.21l0,0v36.05c0,3.98-3.23,7.21-7.21,7.21l0,0h-36.06
		c-3.98,0-7.21-3.23-7.21-7.21l0,0V87.25C635.61,83.27,638.84,80.04,642.82,80.04L642.82,80.04z M588.73,134.12h36.06
		c3.98,0,7.21,3.23,7.21,7.21l0,0v36.05c0,3.98-3.23,7.21-7.21,7.21l0,0h-36.06c-3.98,0-7.21-3.23-7.21-7.21l0,0v-36.05
		C581.52,137.34,584.75,134.12,588.73,134.12L588.73,134.12z M642.82,134.12h36.06c3.98,0,7.21,3.23,7.21,7.21l0,0v36.05
		c0,3.98-3.23,7.21-7.21,7.21l0,0h-36.06c-3.98,0-7.21-3.23-7.21-7.21l0,0v-36.05C635.61,137.34,638.84,134.12,642.82,134.12
		L642.82,134.12z M588.73,188.19h36.06c3.98,0,7.21,3.23,7.21,7.21l0,0v36.05c0,3.98-3.23,7.21-7.21,7.21l0,0h-36.06
		c-3.98,0-7.21-3.23-7.21-7.21l0,0V195.4C581.52,191.42,584.75,188.19,588.73,188.19L588.73,188.19z M642.82,188.19h36.06
		c3.98,0,7.21,3.23,7.21,7.21l0,0v36.05c0,3.98-3.23,7.21-7.21,7.21l0,0h-36.06c-3.98,0-7.21-3.23-7.21-7.21l0,0V195.4
		C635.61,191.42,638.84,188.19,642.82,188.19L642.82,188.19z M696.91,25.97h36.06c3.98,0,7.21,3.23,7.21,7.21l0,0v36.05
		c0,3.98-3.23,7.21-7.21,7.21l0,0h-36.06c-3.98,0-7.21-3.23-7.21-7.21l0,0V33.18C689.7,29.2,692.93,25.97,696.91,25.97L696.91,25.97
		z M696.91,80.04h36.06c3.98,0,7.21,3.23,7.21,7.21l0,0v36.05c0,3.98-3.23,7.21-7.21,7.21l0,0h-36.06c-3.98,0-7.21-3.23-7.21-7.21
		l0,0V87.25C689.7,83.27,692.93,80.04,696.91,80.04L696.91,80.04z M696.91,134.12h36.06c3.98,0,7.21,3.23,7.21,7.21l0,0v36.05
		c0,3.98-3.23,7.21-7.21,7.21l0,0h-36.06c-3.98,0-7.21-3.23-7.21-7.21l0,0v-36.05C689.7,137.34,692.93,134.12,696.91,134.12
		L696.91,134.12z M696.91,188.19h36.06c3.98,0,7.21,3.23,7.21,7.21l0,0v36.05c0,3.98-3.23,7.21-7.21,7.21l0,0h-36.06
		c-3.98,0-7.21-3.23-7.21-7.21l0,0V195.4C689.7,191.42,692.93,188.19,696.91,188.19L696.91,188.19z M372.37,188.19h90.15
		c3.98,0,7.21,3.23,7.21,7.21l0,0v36.05c0,3.98-3.23,7.21-7.21,7.21l0,0h-90.15c-3.98,0-7.21-3.23-7.21-7.21l0,0V195.4
		C365.16,191.42,368.39,188.19,372.37,188.19L372.37,188.19z"/>
</g>
<g>
	<path fill="#E5E5E5" d="M751,279.17c0-4.98-4.04-9.01-9.01-9.01l0,0H24.4c-4.98,0-9.01,4.03-9.01,9.01l0,0v216.29
		c0,4.98,4.04,9.01,9.02,9.01l0,0h717.59c4.98,0,9.01-4.04,9.01-9.01l0,0V279.17z"/>
	<path fill="#FFFFFF" d="M101.92,280.97h36.06c3.98,0,7.21,3.23,7.21,7.21l0,0v36.05c0,3.98-3.23,7.21-7.21,7.21l0,0h-36.06
		c-3.98,0-7.21-3.23-7.21-7.21l0,0v-36.05C94.71,284.2,97.94,280.97,101.92,280.97L101.92,280.97z M156.01,280.97h36.06
		c3.98,0,7.21,3.23,7.21,7.21l0,0v36.05c0,3.98-3.23,7.21-7.21,7.21l0,0h-36.06c-3.98,0-7.21-3.23-7.21-7.21l0,0v-36.05
		C148.8,284.2,152.03,280.97,156.01,280.97L156.01,280.97z M210.1,280.97h36.06c3.98,0,7.21,3.23,7.21,7.21l0,0v36.05
		c0,3.98-3.23,7.21-7.21,7.21l0,0H210.1c-3.98,0-7.21-3.23-7.21-7.21l0,0v-36.05C202.89,284.2,206.12,280.97,210.1,280.97
		L210.1,280.97z M210.1,335.04h36.06c3.98,0,7.21,3.23,7.21,7.21l0,0v36.05c0,3.98-3.23,7.21-7.21,7.21l0,0H210.1
		c-3.98,0-7.21-3.23-7.21-7.21l0,0v-36.05C202.89,338.27,206.12,335.04,210.1,335.04L210.1,335.04z M156.01,335.04h36.06
		c3.98,0,7.21,3.23,7.21,7.21l0,0v36.05c0,3.98-3.23,7.21-7.21,7.21l0,0h-36.06c-3.98,0-7.21-3.23-7.21-7.21l0,0v-36.05
		C148.8,338.27,152.03,335.04,156.01,335.04L156.01,335.04z M101.92,335.04h36.06c3.98,0,7.21,3.23,7.21,7.21l0,0v36.05
		c0,3.98-3.23,7.21-7.21,7.21l0,0h-36.06c-3.98,0-7.21-3.23-7.21-7.21l0,0v-36.05C94.71,338.27,97.94,335.04,101.92,335.04
		L101.92,335.04z M101.92,389.12h36.06c3.98,0,7.21,3.23,7.21,7.21l0,0v36.05c0,3.98-3.23,7.21-7.21,7.21l0,0h-36.06
		c-3.98,0-7.21-3.23-7.21-7.21l0,0v-36.05C94.71,392.34,97.94,389.12,101.92,389.12L101.92,389.12z M156.01,389.12h36.06
		c3.98,0,7.21,3.23,7.21,7.21l0,0v36.05c0,3.98-3.23,7.21-7.21,7.21l0,0h-36.06c-3.98,0-7.21-3.23-7.21-7.21l0,0v-36.05
		C148.8,392.34,152.03,389.12,156.01,389.12L156.01,389.12z M210.1,389.12h36.06c3.98,0,7.21,3.23,7.21,7.21l0,0v36.05
		c0,3.98-3.23,7.21-7.21,7.21l0,0H210.1c-3.98,0-7.21-3.23-7.21-7.21l0,0v-36.05C202.89,392.34,206.12,389.12,210.1,389.12
		L210.1,389.12z M101.92,443.19h36.06c3.98,0,7.21,3.23,7.21,7.21l0,0v36.05c0,3.98-3.23,7.21-7.21,7.21l0,0h-36.06
		c-3.98,0-7.21-3.23-7.21-7.21l0,0V450.4C94.71,446.42,97.94,443.19,101.92,443.19L101.92,443.19z M156.01,443.19h36.06
		c3.98,0,7.21,3.23,7.21,7.21l0,0v36.05c0,3.98-3.23,7.21-7.21,7.21l0,0h-36.06c-3.98,0-7.21-3.23-7.21-7.21l0,0V450.4
		C148.8,446.42,152.03,443.19,156.01,443.19L156.01,443.19z M210.1,443.19h36.06c3.98,0,7.21,3.23,7.21,7.21l0,0v36.05
		c0,3.98-3.23,7.21-7.21,7.21l0,0H210.1c-3.98,0-7.21-3.23-7.21-7.21l0,0V450.4C202.89,446.42,206.12,443.19,210.1,443.19
		L210.1,443.19z M264.19,280.97h36.06c3.98,0,7.21,3.23,7.21,7.21l0,0v36.05c0,3.98-3.23,7.21-7.21,7.21l0,0h-36.06
		c-3.98,0-7.21-3.23-7.21-7.21l0,0v-36.05C256.98,284.2,260.21,280.97,264.19,280.97L264.19,280.97z M318.28,280.97h36.06
		c3.98,0,7.21,3.23,7.21,7.21l0,0v36.05c0,3.98-3.23,7.21-7.21,7.21l0,0h-36.06c-3.98,0-7.21-3.23-7.21-7.21l0,0v-36.05
		C311.07,284.2,314.3,280.97,318.28,280.97L318.28,280.97z M264.19,335.04h36.06c3.98,0,7.21,3.23,7.21,7.21l0,0v36.05
		c0,3.98-3.23,7.21-7.21,7.21l0,0h-36.06c-3.98,0-7.21-3.23-7.21-7.21l0,0v-36.05C256.98,338.27,260.21,335.04,264.19,335.04
		L264.19,335.04z M318.28,335.04h36.06c3.98,0,7.21,3.23,7.21,7.21l0,0v36.05c0,3.98-3.23,7.21-7.21,7.21l0,0h-36.06
		c-3.98,0-7.21-3.23-7.21-7.21l0,0v-36.05C311.07,338.27,314.3,335.04,318.28,335.04L318.28,335.04z M264.19,389.12h36.06
		c3.98,0,7.21,3.23,7.21,7.21l0,0v36.05c0,3.98-3.23,7.21-7.21,7.21l0,0h-36.06c-3.98,0-7.21-3.23-7.21-7.21l0,0v-36.05
		C256.98,392.34,260.21,389.12,264.19,389.12L264.19,389.12z M318.28,389.12h36.06c3.98,0,7.21,3.23,7.21,7.21l0,0v36.05
		c0,3.98-3.23,7.21-7.21,7.21l0,0h-36.06c-3.98,0-7.21-3.23-7.21-7.21l0,0v-36.05C311.07,392.34,314.3,389.12,318.28,389.12
		L318.28,389.12z M264.19,443.19h36.06c3.98,0,7.21,3.23,7.21,7.21l0,0v36.05c0,3.98-3.23,7.21-7.21,7.21l0,0h-36.06
		c-3.98,0-7.21-3.23-7.21-7.21l0,0V450.4C256.98,446.42,260.21,443.19,264.19,443.19L264.19,443.19z M318.28,443.19h36.06
		c3.98,0,7.21,3.23,7.21,7.21l0,0v36.05c0,3.98-3.23,7.21-7.21,7.21l0,0h-36.06c-3.98,0-7.21-3.23-7.21-7.21l0,0V450.4
		C311.07,446.42,314.3,443.19,318.28,443.19L318.28,443.19z M372.37,280.97h36.06c3.98,0,7.21,3.23,7.21,7.21l0,0v36.05
		c0,3.98-3.23,7.21-7.21,7.21l0,0h-36.06c-3.98,0-7.21-3.23-7.21-7.21l0,0v-36.05C365.16,284.2,368.39,280.97,372.37,280.97
		L372.37,280.97z M426.46,280.97h36.06c3.98,0,7.21,3.23,7.21,7.21l0,0v36.05c0,3.98-3.23,7.21-7.21,7.21l0,0h-36.06
		c-3.98,0-7.21-3.23-7.21-7.21l0,0v-36.05C419.25,284.2,422.48,280.97,426.46,280.97L426.46,280.97z M372.37,335.04h36.06
		c3.98,0,7.21,3.23,7.21,7.21l0,0v36.05c0,3.98-3.23,7.21-7.21,7.21l0,0h-36.06c-3.98,0-7.21-3.23-7.21-7.21l0,0v-36.05
		C365.16,338.27,368.39,335.04,372.37,335.04L372.37,335.04z M426.46,335.04h36.06c3.98,0,7.21,3.23,7.21,7.21l0,0v36.05
		c0,3.98-3.23,7.21-7.21,7.21l0,0h-36.06c-3.98,0-7.21-3.23-7.21-7.21l0,0v-36.05C419.25,338.27,422.48,335.04,426.46,335.04
		L426.46,335.04z M372.37,389.12h36.06c3.98,0,7.21,3.23,7.21,7.21l0,0v36.05c0,3.98-3.23,7.21-7.21,7.21l0,0h-36.06
		c-3.98,0-7.21-3.23-7.21-7.21l0,0v-36.05C365.16,392.34,368.39,389.12,372.37,389.12L372.37,389.12z M426.46,389.12h36.06
		c3.98,0,7.21,3.23,7.21,7.21l0,0v36.05c0,3.98-3.23,7.21-7.21,7.21l0,0h-36.06c-3.98,0-7.21-3.23-7.21-7.21l0,0v-36.05
		C419.25,392.34,422.48,389.12,426.46,389.12L426.46,389.12z M480.55,280.97h36.06c3.98,0,7.21,3.23,7.21,7.21l0,0v36.05
		c0,3.98-3.23,7.21-7.21,7.21l0,0h-36.06c-3.98,0-7.21-3.23-7.21-7.21l0,0v-36.05C473.34,284.2,476.57,280.97,480.55,280.97
		L480.55,280.97z M534.64,280.97h36.06c3.98,0,7.21,3.23,7.21,7.21l0,0v36.05c0,3.98-3.23,7.21-7.21,7.21l0,0h-36.06
		c-3.98,0-7.21-3.23-7.21-7.21l0,0v-36.05C527.43,284.2,530.66,280.97,534.64,280.97L534.64,280.97z M480.55,335.04h36.06
		c3.98,0,7.21,3.23,7.21,7.21l0,0v36.05c0,3.98-3.23,7.21-7.21,7.21l0,0h-36.06c-3.98,0-7.21-3.23-7.21-7.21l0,0v-36.05
		C473.34,338.27,476.57,335.04,480.55,335.04L480.55,335.04z M534.64,335.04h36.06c3.98,0,7.21,3.23,7.21,7.21l0,0v36.05
		c0,3.98-3.23,7.21-7.21,7.21l0,0h-36.06c-3.98,0-7.21-3.23-7.21-7.21l0,0v-36.05C527.43,338.27,530.66,335.04,534.64,335.04
		L534.64,335.04z M480.55,389.12h36.06c3.98,0,7.21,3.23,7.21,7.21l0,0v36.05c0,3.98-3.23,7.21-7.21,7.21l0,0h-36.06
		c-3.98,0-7.21-3.23-7.21-7.21l0,0v-36.05C473.34,392.34,476.57,389.12,480.55,389.12L480.55,389.12z M534.64,389.12h36.06
		c3.98,0,7.21,3.23,7.21,7.21l0,0v36.05c0,3.98-3.23,7.21-7.21,7.21l0,0h-36.06c-3.98,0-7.21-3.23-7.21-7.21l0,0v-36.05
		C527.43,392.34,530.66,389.12,534.64,389.12L534.64,389.12z M480.55,443.19h36.06c3.98,0,7.21,3.23,7.21,7.21l0,0v36.05
		c0,3.98-3.23,7.21-7.21,7.21l0,0h-36.06c-3.98,0-7.21-3.23-7.21-7.21l0,0V450.4C473.34,446.42,476.57,443.19,480.55,443.19
		L480.55,443.19z M534.64,443.19h36.06c3.98,0,7.21,3.23,7.21,7.21l0,0v36.05c0,3.98-3.23,7.21-7.21,7.21l0,0h-36.06
		c-3.98,0-7.21-3.23-7.21-7.21l0,0V450.4C527.43,446.42,530.66,443.19,534.64,443.19L534.64,443.19z M588.73,280.97h36.06
		c3.98,0,7.21,3.23,7.21,7.21l0,0v36.05c0,3.98-3.23,7.21-7.21,7.21l0,0h-36.06c-3.98,0-7.21-3.23-7.21-7.21l0,0v-36.05
		C581.52,284.2,584.75,280.97,588.73,280.97L588.73,280.97z M642.82,280.97h36.06c3.98,0,7.21,3.23,7.21,7.21l0,0v36.05
		c0,3.98-3.23,7.21-7.21,7.21l0,0h-36.06c-3.98,0-7.21-3.23-7.21-7.21l0,0v-36.05C635.61,284.2,638.84,280.97,642.82,280.97
		L642.82,280.97z M588.73,335.04h36.06c3.98,0,7.21,3.23,7.21,7.21l0,0v36.05c0,3.98-3.23,7.21-7.21,7.21l0,0h-36.06
		c-3.98,0-7.21-3.23-7.21-7.21l0,0v-36.05C581.52,338.27,584.75,335.04,588.73,335.04L588.73,335.04z M642.82,335.04h36.06
		c3.98,0,7.21,3.23,7.21,7.21l0,0v36.05c0,3.98-3.23,7.21-7.21,7.21l0,0h-36.06c-3.98,0-7.21-3.23-7.21-7.21l0,0v-36.05
		C635.61,338.27,638.84,335.04,642.82,335.04L642.82,335.04z M588.73,389.12h36.06c3.98,0,7.21,3.23,7.21,7.21l0,0v36.05
		c0,3.98-3.23,7.21-7.21,7.21l0,0h-36.06c-3.98,0-7.21-3.23-7.21-7.21l0,0v-36.05C581.52,392.34,584.75,389.12,588.73,389.12
		L588.73,389.12z M642.82,389.12h36.06c3.98,0,7.21,3.23,7.21,7.21l0,0v36.05c0,3.98-3.23,7.21-7.21,7.21l0,0h-36.06
		c-3.98,0-7.21-3.23-7.21-7.21l0,0v-36.05C635.61,392.34,638.84,389.12,642.82,389.12L642.82,389.12z M588.73,443.19h36.06
		c3.98,0,7.21,3.23,7.21,7.21l0,0v36.05c0,3.98-3.23,7.21-7.21,7.21l0,0h-36.06c-3.98,0-7.21-3.23-7.21-7.21l0,0V450.4
		C581.52,446.42,584.75,443.19,588.73,443.19L588.73,443.19z M642.82,443.19h36.06c3.98,0,7.21,3.23,7.21,7.21l0,0v36.05
		c0,3.98-3.23,7.21-7.21,7.21l0,0h-36.06c-3.98,0-7.21-3.23-7.21-7.21l0,0V450.4C635.61,446.42,638.84,443.19,642.82,443.19
		L642.82,443.19z M696.91,280.97h36.06c3.98,0,7.21,3.23,7.21,7.21l0,0v36.05c0,3.98-3.23,7.21-7.21,7.21l0,0h-36.06
		c-3.98,0-7.21-3.23-7.21-7.21l0,0v-36.05C689.7,284.2,692.93,280.97,696.91,280.97L696.91,280.97z M696.91,335.04h36.06
		c3.98,0,7.21,3.23,7.21,7.21l0,0v36.05c0,3.98-3.23,7.21-7.21,7.21l0,0h-36.06c-3.98,0-7.21-3.23-7.21-7.21l0,0v-36.05
		C689.7,338.27,692.93,335.04,696.91,335.04L696.91,335.04z M696.91,389.12h36.06c3.98,0,7.21,3.23,7.21,7.21l0,0v36.05
		c0,3.98-3.23,7.21-7.21,7.21l0,0h-36.06c-3.98,0-7.21-3.23-7.21-7.21l0,0v-36.05C689.7,392.34,692.93,389.12,696.91,389.12
		L696.91,389.12z M696.91,443.19h36.06c3.98,0,7.21,3.23,7.21,7.21l0,0v36.05c0,3.98-3.23,7.21-7.21,7.21l0,0h-36.06
		c-3.98,0-7.21-3.23-7.21-7.21l0,0V450.4C689.7,446.42,692.93,443.19,696.91,443.19L696.91,443.19z M372.37,443.19h90.15
		c3.98,0,7.21,3.23,7.21,7.21l0,0v36.05c0,3.98-3.23,7.21-7.21,7.21l0,0h-90.15c-3.98,0-7.21-3.23-7.21-7.21l0,0V450.4
		C365.16,446.42,368.39,443.19,372.37,443.19L372.37,443.19z"/>
</g>
<g>
	<path fill="#E5E5E5" d="M751,534.17c0-4.98-4.04-9.01-9.01-9.01l0,0H24.4c-4.98,0-9.01,4.03-9.01,9.01l0,0v216.29
		c0,4.98,4.04,9.01,9.02,9.01l0,0h717.59c4.98,0,9.01-4.04,9.01-9.01l0,0V534.17z"/>
	<path fill="#FFFFFF" d="M101.92,535.97h36.06c3.98,0,7.21,3.23,7.21,7.21l0,0v36.05c0,3.98-3.23,7.21-7.21,7.21l0,0h-36.06
		c-3.98,0-7.21-3.23-7.21-7.21l0,0v-36.05C94.71,539.2,97.94,535.97,101.92,535.97L101.92,535.97z M156.01,535.97h36.06
		c3.98,0,7.21,3.23,7.21,7.21l0,0v36.05c0,3.98-3.23,7.21-7.21,7.21l0,0h-36.06c-3.98,0-7.21-3.23-7.21-7.21l0,0v-36.05
		C148.8,539.2,152.03,535.97,156.01,535.97L156.01,535.97z M210.1,535.97h36.06c3.98,0,7.21,3.23,7.21,7.21l0,0v36.05
		c0,3.98-3.23,7.21-7.21,7.21l0,0H210.1c-3.98,0-7.21-3.23-7.21-7.21l0,0v-36.05C202.89,539.2,206.12,535.97,210.1,535.97
		L210.1,535.97z M210.1,590.04h36.06c3.98,0,7.21,3.23,7.21,7.21l0,0v36.05c0,3.98-3.23,7.21-7.21,7.21l0,0H210.1
		c-3.98,0-7.21-3.23-7.21-7.21l0,0v-36.05C202.89,593.27,206.12,590.04,210.1,590.04L210.1,590.04z M156.01,590.04h36.06
		c3.98,0,7.21,3.23,7.21,7.21l0,0v36.05c0,3.98-3.23,7.21-7.21,7.21l0,0h-36.06c-3.98,0-7.21-3.23-7.21-7.21l0,0v-36.05
		C148.8,593.27,152.03,590.04,156.01,590.04L156.01,590.04z M101.92,590.04h36.06c3.98,0,7.21,3.23,7.21,7.21l0,0v36.05
		c0,3.98-3.23,7.21-7.21,7.21l0,0h-36.06c-3.98,0-7.21-3.23-7.21-7.21l0,0v-36.05C94.71,593.27,97.94,590.04,101.92,590.04
		L101.92,590.04z M101.92,644.12h36.06c3.98,0,7.21,3.23,7.21,7.21l0,0v36.05c0,3.98-3.23,7.21-7.21,7.21l0,0h-36.06
		c-3.98,0-7.21-3.23-7.21-7.21l0,0v-36.05C94.71,647.34,97.94,644.12,101.92,644.12L101.92,644.12z M156.01,644.12h36.06
		c3.98,0,7.21,3.23,7.21,7.21l0,0v36.05c0,3.98-3.23,7.21-7.21,7.21l0,0h-36.06c-3.98,0-7.21-3.23-7.21-7.21l0,0v-36.05
		C148.8,647.34,152.03,644.12,156.01,644.12L156.01,644.12z M210.1,644.12h36.06c3.98,0,7.21,3.23,7.21,7.21l0,0v36.05
		c0,3.98-3.23,7.21-7.21,7.21l0,0H210.1c-3.98,0-7.21-3.23-7.21-7.21l0,0v-36.05C202.89,647.34,206.12,644.12,210.1,644.12
		L210.1,644.12z M101.92,698.19h36.06c3.98,0,7.21,3.23,7.21,7.21l0,0v36.05c0,3.98-3.23,7.21-7.21,7.21l0,0h-36.06
		c-3.98,0-7.21-3.23-7.21-7.21l0,0V705.4C94.71,701.42,97.94,698.19,101.92,698.19L101.92,698.19z M156.01,698.19h36.06
		c3.98,0,7.21,3.23,7.21,7.21l0,0v36.05c0,3.98-3.23,7.21-7.21,7.21l0,0h-36.06c-3.98,0-7.21-3.23-7.21-7.21l0,0V705.4
		C148.8,701.42,152.03,698.19,156.01,698.19L156.01,698.19z M210.1,698.19h36.06c3.98,0,7.21,3.23,7.21,7.21l0,0v36.05
		c0,3.98-3.23,7.21-7.21,7.21l0,0H210.1c-3.98,0-7.21-3.23-7.21-7.21l0,0V705.4C202.89,701.42,206.12,698.19,210.1,698.19
		L210.1,698.19z M264.19,535.97h36.06c3.98,0,7.21,3.23,7.21,7.21l0,0v36.05c0,3.98-3.23,7.21-7.21,7.21l0,0h-36.06
		c-3.98,0-7.21-3.23-7.21-7.21l0,0v-36.05C256.98,539.2,260.21,535.97,264.19,535.97L264.19,535.97z M318.28,535.97h36.06
		c3.98,0,7.21,3.23,7.21,7.21l0,0v36.05c0,3.98-3.23,7.21-7.21,7.21l0,0h-36.06c-3.98,0-7.21-3.23-7.21-7.21l0,0v-36.05
		C311.07,539.2,314.3,535.97,318.28,535.97L318.28,535.97z M264.19,590.04h36.06c3.98,0,7.21,3.23,7.21,7.21l0,0v36.05
		c0,3.98-3.23,7.21-7.21,7.21l0,0h-36.06c-3.98,0-7.21-3.23-7.21-7.21l0,0v-36.05C256.98,593.27,260.21,590.04,264.19,590.04
		L264.19,590.04z M318.28,590.04h36.06c3.98,0,7.21,3.23,7.21,7.21l0,0v36.05c0,3.98-3.23,7.21-7.21,7.21l0,0h-36.06
		c-3.98,0-7.21-3.23-7.21-7.21l0,0v-36.05C311.07,593.27,314.3,590.04,318.28,590.04L318.28,590.04z M264.19,644.12h36.06
		c3.98,0,7.21,3.23,7.21,7.21l0,0v36.05c0,3.98-3.23,7.21-7.21,7.21l0,0h-36.06c-3.98,0-7.21-3.23-7.21-7.21l0,0v-36.05
		C256.98,647.34,260.21,644.12,264.19,644.12L264.19,644.12z M318.28,644.12h36.06c3.98,0,7.21,3.23,7.21,7.21l0,0v36.05
		c0,3.98-3.23,7.21-7.21,7.21l0,0h-36.06c-3.98,0-7.21-3.23-7.21-7.21l0,0v-36.05C311.07,647.34,314.3,644.12,318.28,644.12
		L318.28,644.12z M264.19,698.19h36.06c3.98,0,7.21,3.23,7.21,7.21l0,0v36.05c0,3.98-3.23,7.21-7.21,7.21l0,0h-36.06
		c-3.98,0-7.21-3.23-7.21-7.21l0,0V705.4C256.98,701.42,260.21,698.19,264.19,698.19L264.19,698.19z M318.28,698.19h36.06
		c3.98,0,7.21,3.23,7.21,7.21l0,0v36.05c0,3.98-3.23,7.21-7.21,7.21l0,0h-36.06c-3.98,0-7.21-3.23-7.21-7.21l0,0V705.4
		C311.07,701.42,314.3,698.19,318.28,698.19L318.28,698.19z M372.37,535.97h36.06c3.98,0,7.21,3.23,7.21,7.21l0,0v36.05
		c0,3.98-3.23,7.21-7.21,7.21l0,0h-36.06c-3.98,0-7.21-3.23-7.21-7.21l0,0v-36.05C365.16,539.2,368.39,535.97,372.37,535.97
		L372.37,535.97z M426.46,535.97h36.06c3.98,0,7.21,3.23,7.21,7.21l0,0v36.05c0,3.98-3.23,7.21-7.21,7.21l0,0h-36.06
		c-3.98,0-7.21-3.23-7.21-7.21l0,0v-36.05C419.25,539.2,422.48,535.97,426.46,535.97L426.46,535.97z M372.37,590.04h36.06
		c3.98,0,7.21,3.23,7.21,7.21l0,0v36.05c0,3.98-3.23,7.21-7.21,7.21l0,0h-36.06c-3.98,0-7.21-3.23-7.21-7.21l0,0v-36.05
		C365.16,593.27,368.39,590.04,372.37,590.04L372.37,590.04z M426.46,590.04h36.06c3.98,0,7.21,3.23,7.21,7.21l0,0v36.05
		c0,3.98-3.23,7.21-7.21,7.21l0,0h-36.06c-3.98,0-7.21-3.23-7.21-7.21l0,0v-36.05C419.25,593.27,422.48,590.04,426.46,590.04
		L426.46,590.04z M372.37,644.12h36.06c3.98,0,7.21,3.23,7.21,7.21l0,0v36.05c0,3.98-3.23,7.21-7.21,7.21l0,0h-36.06
		c-3.98,0-7.21-3.23-7.21-7.21l0,0v-36.05C365.16,647.34,368.39,644.12,372.37,644.12L372.37,644.12z M426.46,644.12h36.06
		c3.98,0,7.21,3.23,7.21,7.21l0,0v36.05c0,3.98-3.23,7.21-7.21,7.21l0,0h-36.06c-3.98,0-7.21-3.23-7.21-7.21l0,0v-36.05
		C419.25,647.34,422.48,644.12,426.46,644.12L426.46,644.12z M480.55,535.97h36.06c3.98,0,7.21,3.23,7.21,7.21l0,0v36.05
		c0,3.98-3.23,7.21-7.21,7.21l0,0h-36.06c-3.98,0-7.21-3.23-7.21-7.21l0,0v-36.05C473.34,539.2,476.57,535.97,480.55,535.97
		L480.55,535.97z M534.64,535.97h36.06c3.98,0,7.21,3.23,7.21,7.21l0,0v36.05c0,3.98-3.23,7.21-7.21,7.21l0,0h-36.06
		c-3.98,0-7.21-3.23-7.21-7.21l0,0v-36.05C527.43,539.2,530.66,535.97,534.64,535.97L534.64,535.97z M480.55,590.04h36.06
		c3.98,0,7.21,3.23,7.21,7.21l0,0v36.05c0,3.98-3.23,7.21-7.21,7.21l0,0h-36.06c-3.98,0-7.21-3.23-7.21-7.21l0,0v-36.05
		C473.34,593.27,476.57,590.04,480.55,590.04L480.55,590.04z M534.64,590.04h36.06c3.98,0,7.21,3.23,7.21,7.21l0,0v36.05
		c0,3.98-3.23,7.21-7.21,7.21l0,0h-36.06c-3.98,0-7.21-3.23-7.21-7.21l0,0v-36.05C527.43,593.27,530.66,590.04,534.64,590.04
		L534.64,590.04z M480.55,644.12h36.06c3.98,0,7.21,3.23,7.21,7.21l0,0v36.05c0,3.98-3.23,7.21-7.21,7.21l0,0h-36.06
		c-3.98,0-7.21-3.23-7.21-7.21l0,0v-36.05C473.34,647.34,476.57,644.12,480.55,644.12L480.55,644.12z M534.64,644.12h36.06
		c3.98,0,7.21,3.23,7.21,7.21l0,0v36.05c0,3.98-3.23,7.21-7.21,7.21l0,0h-36.06c-3.98,0-7.21-3.23-7.21-7.21l0,0v-36.05
		C527.43,647.34,530.66,644.12,534.64,644.12L534.64,644.12z M480.55,698.19h36.06c3.98,0,7.21,3.23,7.21,7.21l0,0v36.05
		c0,3.98-3.23,7.21-7.21,7.21l0,0h-36.06c-3.98,0-7.21-3.23-7.21-7.21l0,0V705.4C473.34,701.42,476.57,698.19,480.55,698.19
		L480.55,698.19z M534.64,698.19h36.06c3.98,0,7.21,3.23,7.21,7.21l0,0v36.05c0,3.98-3.23,7.21-7.21,7.21l0,0h-36.06
		c-3.98,0-7.21-3.23-7.21-7.21l0,0V705.4C527.43,701.42,530.66,698.19,534.64,698.19L534.64,698.19z M588.73,535.97h36.06
		c3.98,0,7.21,3.23,7.21,7.21l0,0v36.05c0,3.98-3.23,7.21-7.21,7.21l0,0h-36.06c-3.98,0-7.21-3.23-7.21-7.21l0,0v-36.05
		C581.52,539.2,584.75,535.97,588.73,535.97L588.73,535.97z M642.82,535.97h36.06c3.98,0,7.21,3.23,7.21,7.21l0,0v36.05
		c0,3.98-3.23,7.21-7.21,7.21l0,0h-36.06c-3.98,0-7.21-3.23-7.21-7.21l0,0v-36.05C635.61,539.2,638.84,535.97,642.82,535.97
		L642.82,535.97z M588.73,590.04h36.06c3.98,0,7.21,3.23,7.21,7.21l0,0v36.05c0,3.98-3.23,7.21-7.21,7.21l0,0h-36.06
		c-3.98,0-7.21-3.23-7.21-7.21l0,0v-36.05C581.52,593.27,584.75,590.04,588.73,590.04L588.73,590.04z M642.82,590.04h36.06
		c3.98,0,7.21,3.23,7.21,7.21l0,0v36.05c0,3.98-3.23,7.21-7.21,7.21l0,0h-36.06c-3.98,0-7.21-3.23-7.21-7.21l0,0v-36.05
		C635.61,593.27,638.84,590.04,642.82,590.04L642.82,590.04z M588.73,644.12h36.06c3.98,0,7.21,3.23,7.21,7.21l0,0v36.05
		c0,3.98-3.23,7.21-7.21,7.21l0,0h-36.06c-3.98,0-7.21-3.23-7.21-7.21l0,0v-36.05C581.52,647.34,584.75,644.12,588.73,644.12
		L588.73,644.12z M642.82,644.12h36.06c3.98,0,7.21,3.23,7.21,7.21l0,0v36.05c0,3.98-3.23,7.21-7.21,7.21l0,0h-36.06
		c-3.98,0-7.21-3.23-7.21-7.21l0,0v-36.05C635.61,647.34,638.84,644.12,642.82,644.12L642.82,644.12z M588.73,698.19h36.06
		c3.98,0,7.21,3.23,7.21,7.21l0,0v36.05c0,3.98-3.23,7.21-7.21,7.21l0,0h-36.06c-3.98,0-7.21-3.23-7.21-7.21l0,0V705.4
		C581.52,701.42,584.75,698.19,588.73,698.19L588.73,698.19z M642.82,698.19h36.06c3.98,0,7.21,3.23,7.21,7.21l0,0v36.05
		c0,3.98-3.23,7.21-7.21,7.21l0,0h-36.06c-3.98,0-7.21-3.23-7.21-7.21l0,0V705.4C635.61,701.42,638.84,698.19,642.82,698.19
		L642.82,698.19z M696.91,535.97h36.06c3.98,0,7.21,3.23,7.21,7.21l0,0v36.05c0,3.98-3.23,7.21-7.21,7.21l0,0h-36.06
		c-3.98,0-7.21-3.23-7.21-7.21l0,0v-36.05C689.7,539.2,692.93,535.97,696.91,535.97L696.91,535.97z M696.91,590.04h36.06
		c3.98,0,7.21,3.23,7.21,7.21l0,0v36.05c0,3.98-3.23,7.21-7.21,7.21l0,0h-36.06c-3.98,0-7.21-3.23-7.21-7.21l0,0v-36.05
		C689.7,593.27,692.93,590.04,696.91,590.04L696.91,590.04z M696.91,644.12h36.06c3.98,0,7.21,3.23,7.21,7.21l0,0v36.05
		c0,3.98-3.23,7.21-7.21,7.21l0,0h-36.06c-3.98,0-7.21-3.23-7.21-7.21l0,0v-36.05C689.7,647.34,692.93,644.12,696.91,644.12
		L696.91,644.12z M696.91,698.19h36.06c3.98,0,7.21,3.23,7.21,7.21l0,0v36.05c0,3.98-3.23,7.21-7.21,7.21l0,0h-36.06
		c-3.98,0-7.21-3.23-7.21-7.21l0,0V705.4C689.7,701.42,692.93,698.19,696.91,698.19L696.91,698.19z M372.37,698.19h90.15
		c3.98,0,7.21,3.23,7.21,7.21l0,0v36.05c0,3.98-3.23,7.21-7.21,7.21l0,0h-90.15c-3.98,0-7.21-3.23-7.21-7.21l0,0V705.4
		C365.16,701.42,368.39,698.19,372.37,698.19L372.37,698.19z"/>
</g>
<g>
	<path fill="none" stroke="#000000" stroke-width="0.81" stroke-linecap="round" stroke-linejoin="round" d="M267.72,213.26h2.44
		c0.91,0,1.66-0.69,1.66-1.53c0-0.84-0.74-1.53-1.66-1.53h-2.44v6.12"/>
	
		<line fill="none" stroke="#000000" stroke-width="0.81" stroke-linecap="round" stroke-linejoin="round" x1="281.33" y1="216.32" x2="281.33" y2="210.2"/>
	<polyline fill="none" stroke="#000000" stroke-width="0.81" stroke-linecap="round" stroke-linejoin="round" points="
		284.12,216.32 284.12,210.15 289.02,216.32 289.02,210.15 	"/>
	<g>
		
			<line fill="none" stroke="#000000" stroke-width="0.81" stroke-linecap="round" stroke-linejoin="round" x1="291.81" y1="210.2" x2="296.84" y2="210.2"/>
		
			<line fill="none" stroke="#000000" stroke-width="0.81" stroke-linecap="round" stroke-linejoin="round" x1="294.33" y1="216.32" x2="294.33" y2="210.2"/>
	</g>
	<g>
		<path fill="none" stroke="#000000" stroke-width="0.81" stroke-linecap="round" stroke-linejoin="round" d="M274.44,213.26h2.49
			c0.84,0,1.53-0.69,1.53-1.53c0-0.84-0.68-1.53-1.53-1.53h-2.49v6.12"/>
		
			<line fill="none" stroke="#000000" stroke-width="0.81" stroke-linecap="round" stroke-linejoin="round" x1="276.85" y1="213.31" x2="278.43" y2="216.32"/>
	</g>
</g>
<g>
	<g>
		<polyline fill="none" stroke="#000000" stroke-width="0.81" stroke-linecap="round" stroke-linejoin="round" points="
			116.88,107.76 119.63,101.66 122.38,107.76 		"/>
		
			<line fill="none" stroke="#000000" stroke-width="0.81" stroke-linecap="round" stroke-linejoin="round" x1="117.6" y1="106.15" x2="121.66" y2="106.15"/>
	</g>
	<path fill="none" stroke="#000000" stroke-width="0.81" stroke-linecap="round" stroke-linejoin="round" d="M127.25,104.34
		c0.75,0,1.35-0.61,1.35-1.35c0-0.75-0.6-1.35-1.35-1.35h-2.26v2.78v3.34l2.32,0.01c0.94,0,1.71-0.77,1.71-1.71
		S128.19,104.34,127.25,104.34h-2.26"/>
	<g>
		
			<line fill="none" stroke="#000000" stroke-width="0.81" stroke-linecap="round" stroke-linejoin="round" x1="110.35" y1="101.64" x2="115.38" y2="101.64"/>
		
			<line fill="none" stroke="#000000" stroke-width="0.81" stroke-linecap="round" stroke-linejoin="round" x1="112.86" y1="107.76" x2="112.86" y2="101.64"/>
	</g>
</g>
<g>
	
		<circle fill="none" stroke="#000000" stroke-width="0.81" stroke-linecap="round" stroke-linejoin="round" cx="327.91" cy="213.24" r="3.06"/>
	<g>
		<polyline fill="none" stroke="#000000" stroke-width="0.81" stroke-linecap="round" stroke-linejoin="round" points="
			346.74,210.19 342.83,210.19 342.83,216.29 346.74,216.29 		"/>
		
			<line fill="none" stroke="#000000" stroke-width="0.81" stroke-linecap="round" stroke-linejoin="round" x1="345.58" y1="213.04" x2="342.83" y2="213.04"/>
	</g>
	<polyline fill="none" stroke="#000000" stroke-width="0.81" stroke-linecap="round" stroke-linejoin="round" points="
		333.06,210.18 334.82,216.3 336.59,210.18 338.35,216.3 340.11,210.18 	"/>
	<polyline fill="none" stroke="#000000" stroke-width="0.81" stroke-linecap="round" stroke-linejoin="round" points="
		319.12,210.18 319.12,216.3 322.52,216.3 	"/>
	<g>
		<path fill="none" stroke="#000000" stroke-width="0.81" stroke-linecap="round" stroke-linejoin="round" d="M349.45,213.24h2.48
			c0.85,0,1.53-0.68,1.53-1.53c0-0.85-0.68-1.53-1.53-1.53h-2.48v6.12"/>
		
			<line fill="none" stroke="#000000" stroke-width="0.81" stroke-linecap="round" stroke-linejoin="round" x1="351.86" y1="213.28" x2="353.44" y2="216.3"/>
	</g>
</g>
<g>
	<g>
		<polyline fill="none" stroke="#000000" stroke-width="0.81" stroke-linecap="round" stroke-linejoin="round" points="
			489.45,216.3 491.99,210.2 494.53,216.3 		"/>
		
			<line fill="none" stroke="#000000" stroke-width="0.81" stroke-linecap="round" stroke-linejoin="round" x1="490.12" y1="214.7" x2="493.86" y2="214.7"/>
	</g>
	<g>
		<polyline fill="none" stroke="#000000" stroke-width="0.81" stroke-linecap="round" stroke-linejoin="round" points="
			514.19,210.2 510.28,210.2 510.28,216.3 514.19,216.3 		"/>
		
			<line fill="none" stroke="#000000" stroke-width="0.81" stroke-linecap="round" stroke-linejoin="round" x1="513.04" y1="213.05" x2="510.28" y2="213.05"/>
	</g>
	
		<line fill="none" stroke="#000000" stroke-width="0.81" stroke-linecap="round" stroke-linejoin="round" x1="498.04" y1="216.3" x2="498.04" y2="210.18"/>
	<g>
		<path fill="none" stroke="#000000" stroke-width="0.81" stroke-linecap="round" stroke-linejoin="round" d="M481.92,213.24h2.49
			c0.84,0,1.53-0.69,1.53-1.53s-0.68-1.53-1.53-1.53h-2.49v6.12"/>
		
			<line fill="none" stroke="#000000" stroke-width="0.81" stroke-linecap="round" stroke-linejoin="round" x1="484.33" y1="213.28" x2="485.91" y2="216.3"/>
	</g>
	<g>
		<path fill="none" stroke="#000000" stroke-width="0.81" stroke-linecap="round" stroke-linejoin="round" d="M501.56,215.04
			c0.29,0.72,1.33,1.26,2.57,1.26c1.46,0,2.65-0.75,2.65-1.67c0-0.92-1.19-1.67-2.65-1.67"/>
		<path fill="none" stroke="#000000" stroke-width="0.81" stroke-linecap="round" stroke-linejoin="round" d="M506.27,211.23
			c-0.24-0.61-1.11-1.06-2.15-1.06c-1.22,0-2.21,0.63-2.21,1.39c0,0.77,0.99,1.39,2.21,1.39"/>
	</g>
</g>
<g>
	<path fill="none" stroke="#000000" stroke-width="0.81" stroke-linecap="round" stroke-linejoin="round" d="M131.15,53.16
		c-0.59,0.49-1.37,0.79-2.23,0.79c-1.83,0-3.31-1.37-3.31-3.06s1.48-3.06,3.31-3.06c0.86,0,1.64,0.3,2.23,0.79"/>
	<g>
		<polyline fill="none" stroke="#000000" stroke-width="0.81" stroke-linecap="round" stroke-linejoin="round" points="
			114.24,47.86 110,47.86 110,53.96 114.24,53.96 		"/>
		
			<line fill="none" stroke="#000000" stroke-width="0.81" stroke-linecap="round" stroke-linejoin="round" x1="112.99" y1="50.71" x2="110" y2="50.71"/>
	</g>
	<g>
		<path fill="none" stroke="#000000" stroke-width="0.81" stroke-linecap="round" stroke-linejoin="round" d="M117.21,52.7
			c0.31,0.72,1.44,1.26,2.78,1.26c1.58,0,2.86-0.75,2.86-1.67s-1.28-1.67-2.86-1.67"/>
		<path fill="none" stroke="#000000" stroke-width="0.81" stroke-linecap="round" stroke-linejoin="round" d="M122.32,48.9
			c-0.26-0.61-1.2-1.06-2.33-1.06c-1.32,0-2.4,0.63-2.4,1.39s1.07,1.39,2.4,1.39"/>
	</g>
</g>
<g>
	<polygon stroke="#000000" stroke-width="0.54" stroke-linejoin="round" points="603.27,216.6 606.52,209.87 609.77,216.6 	"/>
	<polygon stroke="#000000" stroke-width="0.54" stroke-linejoin="round" points="658.44,209.87 661.69,216.6 664.94,209.87 	"/>
	<polygon stroke="#000000" stroke-width="0.54" stroke-linejoin="round" points="712.14,216.49 718.88,213.24 712.14,209.99 	"/>
	<polygon stroke="#000000" stroke-width="0.54" stroke-linejoin="round" points="556.33,209.99 549.6,213.24 556.33,216.49 	"/>
</g>
<g>
	
		<line fill="none" stroke="#000000" stroke-width="0.81" stroke-linecap="round" stroke-linejoin="round" x1="174.87" y1="216.32" x2="174.87" y2="210.2"/>
	<polyline fill="none" stroke="#000000" stroke-width="0.81" stroke-linecap="round" stroke-linejoin="round" points="164.34,210.2 
		166.25,216.32 168.15,210.2 170.06,216.32 171.97,210.2 	"/>
	<polyline fill="none" stroke="#000000" stroke-width="0.81" stroke-linecap="round" stroke-linejoin="round" points="178.1,216.32 
		178.1,210.15 183,216.32 183,210.15 	"/>
</g>
<g>
	<g>
		<polyline fill="none" stroke="#000000" stroke-width="0.81" stroke-linecap="round" stroke-linejoin="round" points="
			219.12,216.3 221.87,210.19 224.62,216.3 		"/>
		
			<line fill="none" stroke="#000000" stroke-width="0.81" stroke-linecap="round" stroke-linejoin="round" x1="219.84" y1="214.69" x2="223.9" y2="214.69"/>
	</g>
	<g>
		
			<line fill="none" stroke="#000000" stroke-width="0.81" stroke-linecap="round" stroke-linejoin="round" x1="233.04" y1="210.18" x2="238.07" y2="210.18"/>
		
			<line fill="none" stroke="#000000" stroke-width="0.81" stroke-linecap="round" stroke-linejoin="round" x1="235.56" y1="216.3" x2="235.56" y2="210.18"/>
	</g>
	<polyline fill="none" stroke="#000000" stroke-width="0.81" stroke-linecap="round" stroke-linejoin="round" points="
		227.43,210.18 227.43,216.3 231.11,216.3 	"/>
</g>
<g>
	<path fill="none" stroke="#000000" stroke-width="0.81" stroke-linecap="round" stroke-linejoin="round" d="M111.91,215.5
		c-0.59,0.49-1.37,0.79-2.23,0.79c-1.83,0-3.31-1.37-3.31-3.06c0-1.69,1.48-3.06,3.31-3.06c0.86,0,1.64,0.3,2.23,0.79"/>
	<g>
		
			<line fill="none" stroke="#000000" stroke-width="0.81" stroke-linecap="round" stroke-linejoin="round" x1="115.02" y1="210.18" x2="120.06" y2="210.18"/>
		
			<line fill="none" stroke="#000000" stroke-width="0.81" stroke-linecap="round" stroke-linejoin="round" x1="117.54" y1="216.3" x2="117.54" y2="210.18"/>
	</g>
	<polyline fill="none" stroke="#000000" stroke-width="0.81" stroke-linecap="round" stroke-linejoin="round" points="
		129.88,210.18 129.88,216.3 133.56,216.3 	"/>
	<g>
		<path fill="none" stroke="#000000" stroke-width="0.81" stroke-linecap="round" stroke-linejoin="round" d="M122.91,213.24h2.48
			c0.85,0,1.53-0.68,1.53-1.53c0-0.84-0.68-1.53-1.53-1.53h-2.48v6.12"/>
		
			<line fill="none" stroke="#000000" stroke-width="0.81" stroke-linecap="round" stroke-linejoin="round" x1="125.32" y1="213.28" x2="126.9" y2="216.3"/>
	</g>
</g>
<g>
	<g>
		<polyline fill="none" stroke="#000000" stroke-width="0.81" stroke-linecap="round" stroke-linejoin="round" points="
			127.05,155.47 122.82,155.47 122.82,161.57 		"/>
		
			<line fill="none" stroke="#000000" stroke-width="0.81" stroke-linecap="round" stroke-linejoin="round" x1="125.8" y1="158.33" x2="122.82" y2="158.33"/>
	</g>
	<g>
		
			<line fill="none" stroke="#000000" stroke-width="0.81" stroke-linecap="round" stroke-linejoin="round" x1="112.23" y1="161.57" x2="112.23" y2="155.45"/>
		
			<line fill="none" stroke="#000000" stroke-width="0.81" stroke-linecap="round" stroke-linejoin="round" x1="116.93" y1="161.57" x2="116.93" y2="155.45"/>
		
			<line fill="none" stroke="#000000" stroke-width="0.81" stroke-linecap="round" stroke-linejoin="round" x1="116.93" y1="158.15" x2="112.23" y2="158.15"/>
	</g>
	
		<line fill="none" stroke="#000000" stroke-width="0.81" stroke-linecap="round" stroke-linejoin="round" x1="119.74" y1="161.57" x2="119.74" y2="155.45"/>
	<g>
		
			<line fill="none" stroke="#000000" stroke-width="0.81" stroke-linecap="round" stroke-linejoin="round" x1="129.87" y1="155.45" x2="134.9" y2="155.45"/>
		
			<line fill="none" stroke="#000000" stroke-width="0.81" stroke-linecap="round" stroke-linejoin="round" x1="132.39" y1="161.57" x2="132.39" y2="155.45"/>
	</g>
	<g>
		<path fill="none" stroke="#000000" stroke-width="0.81" stroke-linecap="round" stroke-linejoin="round" d="M103.59,160.31
			c0.31,0.73,1.44,1.26,2.78,1.26c1.58,0,2.86-0.75,2.86-1.67s-1.28-1.66-2.86-1.66"/>
		<path fill="none" stroke="#000000" stroke-width="0.81" stroke-linecap="round" stroke-linejoin="round" d="M108.7,156.51
			c-0.26-0.61-1.2-1.06-2.33-1.06c-1.33,0-2.4,0.63-2.4,1.39c0,0.77,1.07,1.39,2.4,1.39"/>
	</g>
</g>
<g>
	<g>
		<polyline fill="none" stroke="#000000" stroke-width="0.81" stroke-linecap="round" stroke-linejoin="round" points="
			722.41,155.47 718.18,155.47 718.18,161.57 		"/>
		
			<line fill="none" stroke="#000000" stroke-width="0.81" stroke-linecap="round" stroke-linejoin="round" x1="721.16" y1="158.33" x2="718.18" y2="158.33"/>
	</g>
	<g>
		
			<line fill="none" stroke="#000000" stroke-width="0.81" stroke-linecap="round" stroke-linejoin="round" x1="707.59" y1="161.57" x2="707.59" y2="155.45"/>
		
			<line fill="none" stroke="#000000" stroke-width="0.81" stroke-linecap="round" stroke-linejoin="round" x1="712.29" y1="161.57" x2="712.29" y2="155.45"/>
		
			<line fill="none" stroke="#000000" stroke-width="0.81" stroke-linecap="round" stroke-linejoin="round" x1="712.29" y1="158.15" x2="707.59" y2="158.15"/>
	</g>
	
		<line fill="none" stroke="#000000" stroke-width="0.81" stroke-linecap="round" stroke-linejoin="round" x1="715.11" y1="161.57" x2="715.11" y2="155.45"/>
	<g>
		
			<line fill="none" stroke="#000000" stroke-width="0.81" stroke-linecap="round" stroke-linejoin="round" x1="725.23" y1="155.45" x2="730.27" y2="155.45"/>
		
			<line fill="none" stroke="#000000" stroke-width="0.81" stroke-linecap="round" stroke-linejoin="round" x1="727.75" y1="161.57" x2="727.75" y2="155.45"/>
	</g>
	<g>
		<path fill="none" stroke="#000000" stroke-width="0.81" stroke-linecap="round" stroke-linejoin="round" d="M698.96,160.31
			c0.31,0.73,1.44,1.26,2.78,1.26c1.58,0,2.86-0.75,2.86-1.67s-1.28-1.66-2.86-1.66"/>
		<path fill="none" stroke="#000000" stroke-width="0.81" stroke-linecap="round" stroke-linejoin="round" d="M704.06,156.51
			c-0.26-0.61-1.2-1.06-2.33-1.06c-1.33,0-2.4,0.63-2.4,1.39c0,0.77,1.07,1.39,2.4,1.39"/>
	</g>
</g>
<g>
	<path fill="none" stroke="#000000" stroke-width="0.81" stroke-linecap="round" stroke-linejoin="round" d="M426.52,215.5
		c-0.47,0.49-1.09,0.79-1.77,0.79c-1.45,0-2.63-1.37-2.63-3.06s1.18-3.06,2.63-3.06c0.68,0,1.3,0.3,1.77,0.79"/>
	<path fill="none" stroke="#000000" stroke-width="0.81" stroke-linecap="round" stroke-linejoin="round" d="M410.76,213.24h2.09
		c0.79,0,1.42-0.69,1.42-1.53c0-0.85-0.64-1.53-1.42-1.53h-2.09v6.12"/>
	<g>
		<polyline fill="none" stroke="#000000" stroke-width="0.81" stroke-linecap="round" stroke-linejoin="round" points="
			415.66,216.3 418.02,210.2 420.39,216.3 		"/>
		
			<line fill="none" stroke="#000000" stroke-width="0.81" stroke-linecap="round" stroke-linejoin="round" x1="416.28" y1="214.69" x2="419.77" y2="214.69"/>
	</g>
	<g>
		<path fill="none" stroke="#000000" stroke-width="0.81" stroke-linecap="round" stroke-linejoin="round" d="M403.62,215.03
			c0.27,0.72,1.24,1.26,2.39,1.26c1.36,0,2.46-0.74,2.46-1.66s-1.1-1.67-2.46-1.67"/>
		<path fill="none" stroke="#000000" stroke-width="0.81" stroke-linecap="round" stroke-linejoin="round" d="M408.02,211.23
			c-0.22-0.61-1.03-1.05-2-1.05c-1.14,0-2.06,0.62-2.06,1.39c0,0.77,0.92,1.39,2.06,1.39"/>
	</g>
	<g>
		<polyline fill="none" stroke="#000000" stroke-width="0.81" stroke-linecap="round" stroke-linejoin="round" points="
			432.38,210.2 428.74,210.2 428.74,216.3 432.38,216.3 		"/>
		
			<line fill="none" stroke="#000000" stroke-width="0.81" stroke-linecap="round" stroke-linejoin="round" x1="431.31" y1="213.05" x2="428.74" y2="213.05"/>
	</g>
</g>
<g>
	
		<circle fill="none" stroke="#000000" stroke-width="1.35" stroke-linecap="round" stroke-linejoin="round" cx="606.35" cy="51.51" r="6.37"/>
	<g>
		
			<circle fill="none" stroke="#000000" stroke-width="1.35" stroke-linecap="round" stroke-linejoin="round" cx="174.4" cy="51.51" r="6.37"/>
		
			<line fill="none" stroke="#000000" stroke-width="1.35" stroke-linecap="round" stroke-linejoin="round" x1="176.96" y1="55.11" x2="179.32" y2="57.76"/>
	</g>
	<path fill="none" stroke="#000000" stroke-width="1.35" stroke-linecap="round" stroke-linejoin="round" d="M503.47,45.14v7.87
		c0,2.69-2.18,4.87-4.87,4.87c-2.69,0-4.87-2.18-4.87-4.87v-7.87"/>
	<path fill="none" stroke="#000000" stroke-width="1.35" stroke-linecap="round" stroke-linejoin="round" d="M657.26,51.51h4.68
		c1.76,0,3.19-1.43,3.19-3.19c0-1.76-1.43-3.18-3.19-3.18h-4.68v12.74"/>
	<g>
		<polyline fill="none" stroke="#000000" stroke-width="1.35" stroke-linecap="round" stroke-linejoin="round" points="
			286.85,45.18 278.71,45.18 278.71,57.88 286.85,57.88 		"/>
		
			<line fill="none" stroke="#000000" stroke-width="1.35" stroke-linecap="round" stroke-linejoin="round" x1="284.45" y1="51.13" x2="278.71" y2="51.13"/>
	</g>
	
		<line fill="none" stroke="#000000" stroke-width="1.35" stroke-linecap="round" stroke-linejoin="round" x1="552.61" y1="57.88" x2="552.61" y2="45.14"/>
	<polyline fill="none" stroke="#000000" stroke-width="1.35" stroke-linecap="round" stroke-linejoin="round" points="220.88,45.14 
		224.56,57.88 228.23,45.14 231.9,57.88 235.57,45.14 	"/>
	<g>
		
			<line fill="none" stroke="#000000" stroke-width="1.35" stroke-linecap="round" stroke-linejoin="round" x1="385.53" y1="45.14" x2="395.21" y2="45.14"/>
		
			<line fill="none" stroke="#000000" stroke-width="1.35" stroke-linecap="round" stroke-linejoin="round" x1="390.37" y1="57.88" x2="390.37" y2="45.14"/>
	</g>
	<g>
		<polyline fill="none" stroke="#000000" stroke-width="1.35" stroke-linecap="round" stroke-linejoin="round" points="
			439.15,45.14 444.41,52.18 449.67,45.14 		"/>
		
			<line fill="none" stroke="#000000" stroke-width="1.35" stroke-linecap="round" stroke-linejoin="round" x1="444.41" y1="57.88" x2="444.41" y2="52.18"/>
	</g>
	<g>
		<path fill="none" stroke="#000000" stroke-width="1.35" stroke-linecap="round" stroke-linejoin="round" d="M332.87,51.51h4.68
			c1.76,0,3.18-1.43,3.18-3.19c0-1.76-1.42-3.18-3.18-3.18h-4.68v12.74"/>
		
			<line fill="none" stroke="#000000" stroke-width="1.35" stroke-linecap="round" stroke-linejoin="round" x1="337.39" y1="51.6" x2="340.69" y2="57.88"/>
	</g>
</g>
<g>
	<g>
		
			<circle fill="none" stroke="#000000" stroke-width="1.08" stroke-linecap="round" stroke-linejoin="round" cx="664.85" cy="101.28" r="0.54"/>
		<path fill="none" stroke="#000000" stroke-width="1.08" stroke-linecap="round" stroke-linejoin="round" d="M664.66,110.9
			c0.34-0.19,1.03-1.39,0.5-2.04c-0.09-0.1-0.2-0.17-0.35-0.17c-0.27,0-0.49,0.22-0.49,0.49s0.23,0.49,0.49,0.49
			C665.13,109.99,665.1,110.47,664.66,110.9z"/>
	</g>
	<g>
		
			<circle fill="none" stroke="#000000" stroke-width="1.08" stroke-linecap="round" stroke-linejoin="round" cx="656.35" cy="101.36" r="0.54"/>
		
			<circle fill="none" stroke="#000000" stroke-width="1.08" stroke-linecap="round" stroke-linejoin="round" cx="656.35" cy="109.32" r="0.54"/>
	</g>
</g>
<g>
	<g>
		
			<path fill="none" stroke="#000000" stroke-width="1.08" stroke-linecap="round" stroke-linejoin="round" stroke-miterlimit="10" d="
			M707.84,102.97l-1.35,4.13l2.54-3.53c0.02-0.03,0.04-0.06,0.05-0.09c0.17-0.33,0.04-0.74-0.3-0.91c-0.33-0.17-0.74-0.04-0.91,0.29
			C707.86,102.9,707.85,102.93,707.84,102.97L707.84,102.97z"/>
		
			<line fill="none" stroke="#000000" stroke-width="1.08" stroke-linecap="round" stroke-linejoin="round" stroke-miterlimit="10" x1="708.47" y1="103.2" x2="707.89" y2="104.35"/>
		
			<path fill="none" stroke="#000000" stroke-width="1.08" stroke-linecap="round" stroke-linejoin="round" stroke-miterlimit="10" d="
			M711.11,102.97l-1.35,4.13l2.54-3.53c0.02-0.03,0.04-0.06,0.05-0.09c0.17-0.33,0.04-0.74-0.3-0.91c-0.33-0.17-0.74-0.04-0.91,0.29
			C711.14,102.9,711.12,102.93,711.11,102.97L711.11,102.97z"/>
		
			<line fill="none" stroke="#000000" stroke-width="1.08" stroke-linecap="round" stroke-linejoin="round" stroke-miterlimit="10" x1="711.75" y1="103.2" x2="711.16" y2="104.35"/>
	</g>
	<g>
		
			<path fill="none" stroke="#000000" stroke-width="1.08" stroke-linecap="round" stroke-linejoin="round" stroke-miterlimit="10" d="
			M721.63,102.97l-1.35,4.13l2.54-3.53c0.02-0.03,0.04-0.06,0.05-0.09c0.17-0.33,0.04-0.74-0.3-0.91c-0.33-0.17-0.74-0.04-0.91,0.3
			C721.65,102.9,721.64,102.93,721.63,102.97L721.63,102.97z"/>
		
			<line fill="none" stroke="#000000" stroke-width="1.08" stroke-linecap="round" stroke-linejoin="round" stroke-miterlimit="10" x1="722.26" y1="103.2" x2="721.67" y2="104.35"/>
	</g>
</g>
<path fill="none" stroke="#000000" stroke-width="1.35" stroke-linecap="round" stroke-linejoin="round" d="M395.73,100.83
	c-1.17-1.28-2.85-2.09-4.72-2.09c-3.52,0-6.37,2.85-6.37,6.37s2.85,6.37,6.37,6.37c2.12,0,4-1.03,5.15-2.63v-3.74h-2.42"/>
<path fill="none" stroke="#000000" stroke-width="1.35" stroke-linecap="round" stroke-linejoin="round" d="M502.21,98.75v8.38
	c0,2.41-1.95,4.36-4.36,4.36c-1.53,0-2.88-0.79-3.65-1.98"/>
<g>
	<polyline fill="none" stroke="#000000" stroke-width="1.35" stroke-linecap="round" stroke-linejoin="round" points="
		169.22,111.48 174.51,98.78 179.8,111.48 	"/>
	
		<line fill="none" stroke="#000000" stroke-width="1.35" stroke-linecap="round" stroke-linejoin="round" x1="170.61" y1="108.15" x2="178.41" y2="108.15"/>
</g>
<path fill="none" stroke="#000000" stroke-width="1.35" stroke-linecap="round" stroke-linejoin="round" d="M282.59,98.74
	c2.69,0,5.01,2.88,5.01,6.39c0,3.51-2.31,6.33-5.01,6.33l-4.52,0.02V98.76L282.59,98.74z"/>
<g>
	<polyline fill="none" stroke="#000000" stroke-width="1.35" stroke-linecap="round" stroke-linejoin="round" points="340.9,98.76 
		332.76,98.76 332.76,111.47 	"/>
	
		<line fill="none" stroke="#000000" stroke-width="1.35" stroke-linecap="round" stroke-linejoin="round" x1="338.49" y1="104.71" x2="332.76" y2="104.71"/>
</g>
<g>
	
		<line fill="none" stroke="#000000" stroke-width="1.35" stroke-linecap="round" stroke-linejoin="round" x1="439.75" y1="111.48" x2="439.75" y2="98.75"/>
	
		<line fill="none" stroke="#000000" stroke-width="1.35" stroke-linecap="round" stroke-linejoin="round" x1="448.8" y1="111.48" x2="448.8" y2="98.75"/>
	
		<line fill="none" stroke="#000000" stroke-width="1.35" stroke-linecap="round" stroke-linejoin="round" x1="448.8" y1="104.36" x2="439.75" y2="104.36"/>
</g>
<polyline fill="none" stroke="#000000" stroke-width="1.35" stroke-linecap="round" stroke-linejoin="round" points="602.55,98.75 
	602.55,111.48 609.62,111.48 "/>
<g>
	
		<line fill="none" stroke="#000000" stroke-width="1.35" stroke-linecap="round" stroke-linejoin="round" x1="547.66" y1="111.48" x2="547.66" y2="98.75"/>
	
		<line fill="none" stroke="#000000" stroke-width="1.35" stroke-linecap="round" stroke-linejoin="round" x1="557.33" y1="98.75" x2="547.66" y2="107.1"/>
	
		<line fill="none" stroke="#000000" stroke-width="1.35" stroke-linecap="round" stroke-linejoin="round" x1="557.33" y1="111.48" x2="551.18" y2="104.06"/>
</g>
<g>
	<path fill="none" stroke="#000000" stroke-width="1.35" stroke-linecap="round" stroke-linejoin="round" d="M222.45,108.86
		c0.6,1.51,2.76,2.63,5.35,2.63c3.04,0,5.51-1.55,5.51-3.47s-2.47-3.47-5.51-3.47"/>
	<path fill="none" stroke="#000000" stroke-width="1.35" stroke-linecap="round" stroke-linejoin="round" d="M232.27,100.95
		c-0.5-1.26-2.31-2.2-4.47-2.2c-2.55,0-4.61,1.3-4.61,2.9c0,1.6,2.06,2.9,4.61,2.9"/>
</g>
<path fill="none" stroke="#000000" stroke-width="1.35" stroke-linecap="round" stroke-linejoin="round" d="M287.72,163.67
	c-1.13,1.03-2.63,1.65-4.28,1.65c-3.52,0-6.37-2.85-6.37-6.37c0-3.52,2.85-6.37,6.37-6.37c1.65,0,3.15,0.63,4.28,1.66"/>
<path fill="none" stroke="#000000" stroke-width="1.35" stroke-linecap="round" stroke-linejoin="round" d="M390.81,158.23
	c1.55,0,2.81-1.26,2.81-2.81s-1.26-2.81-2.81-2.81h-4.22v5.78v6.93l4.34,0.01c1.96,0,3.55-1.59,3.55-3.55
	S392.77,158.23,390.81,158.23h-4.22"/>
<polyline fill="none" stroke="#000000" stroke-width="1.35" stroke-linecap="round" stroke-linejoin="round" points="331.31,152.59 
	336.57,165.33 341.82,152.59 "/>
<polyline fill="none" stroke="#000000" stroke-width="1.35" stroke-linecap="round" stroke-linejoin="round" points="492.18,165.33 
	492.18,152.59 498.33,164.35 504.48,152.59 504.48,165.33 "/>
<polyline fill="none" stroke="#000000" stroke-width="1.35" stroke-linecap="round" stroke-linejoin="round" points="439.34,165.33 
	439.34,152.59 448.69,165.33 448.69,152.59 "/>
<g>
	
		<line fill="none" stroke="#000000" stroke-width="1.35" stroke-linecap="round" stroke-linejoin="round" x1="224.07" y1="165.33" x2="232.37" y2="152.59"/>
	
		<line fill="none" stroke="#000000" stroke-width="1.35" stroke-linecap="round" stroke-linejoin="round" x1="233.23" y1="165.33" x2="224.92" y2="152.59"/>
</g>
<polyline fill="none" stroke="#000000" stroke-width="1.35" stroke-linecap="round" stroke-linejoin="round" points="169.92,152.59 
	178.99,152.59 169.92,165.33 178.99,165.33 "/>
<g>
	<line fill="none" stroke="#000000" stroke-width="1.35" stroke-linecap="round" x1="660.99" y1="164.34" x2="671.11" y2="154.22"/>
	<g>
		<path fill="none" stroke="#000000" stroke-width="1.35" stroke-linecap="round" stroke-linejoin="round" d="M653.69,162.14
			c0-2.23,1.31-2.32,2.39-3.44c0.45-0.47,0.75-1.06,0.75-1.72c0-1.53-1.4-2.76-3.13-2.76c-1.44,0-2.65,0.86-3.02,2.02"/>
		
			<line fill="none" stroke="#000000" stroke-width="1.35" stroke-linecap="round" stroke-linejoin="round" x1="653.69" y1="164.35" x2="653.69" y2="164.35"/>
	</g>
</g>
<g>
	<polyline fill="none" stroke="#000000" stroke-width="1.35" stroke-linecap="round" stroke-linejoin="round" points="596,154.19 
		604.66,159.28 596,164.37 	"/>
	
		<circle fill="none" stroke="#000000" stroke-width="1.35" stroke-linecap="round" stroke-linejoin="round" cx="615.18" cy="159.28" r="0.68"/>
</g>
<g>
	<polyline fill="none" stroke="#000000" stroke-width="1.35" stroke-linecap="round" stroke-linejoin="round" points="
		550.51,154.19 541.86,159.28 550.51,164.37 	"/>
	<path fill="none" stroke="#000000" stroke-width="1.35" stroke-linecap="round" stroke-linejoin="round" d="M561.01,160.63
		c0.42-0.23,1.26-1.7,0.62-2.49c-0.1-0.13-0.25-0.21-0.43-0.21c-0.33,0-0.61,0.27-0.61,0.6s0.28,0.61,0.61,0.61
		C561.57,159.52,561.54,160.1,561.01,160.63z"/>
</g>
<g>
	<path fill="none" stroke="#000000" stroke-width="0.81" stroke-linecap="round" stroke-linejoin="round" d="M708.6,47.53
		c1.29,0,2.4,1.38,2.4,3.07c0,1.69-1.11,3.04-2.4,3.04l-2.17,0.01v-6.11L708.6,47.53z"/>
	<g>
		<polyline fill="none" stroke="#000000" stroke-width="0.81" stroke-linecap="round" stroke-linejoin="round" points="
			717.68,47.55 713.77,47.55 713.77,53.65 717.68,53.65 		"/>
		
			<line fill="none" stroke="#000000" stroke-width="0.81" stroke-linecap="round" stroke-linejoin="round" x1="716.52" y1="50.4" x2="713.77" y2="50.4"/>
	</g>
	<polyline fill="none" stroke="#000000" stroke-width="0.81" stroke-linecap="round" stroke-linejoin="round" points="720.7,47.53 
		720.7,53.65 724.1,53.65 	"/>
</g>
<path fill="#808080" d="M318.28,443.19h36.06c3.98,0,7.21,3.23,7.21,7.21l0,0v36.05c0,3.98-3.23,7.21-7.21,7.21l0,0h-36.06
	c-3.98,0-7.21-3.23-7.21-7.21l0,0V450.4C311.07,446.42,314.3,443.19,318.28,443.19L318.28,443.19z"/>
<g>
	<path fill="none" stroke="#000000" stroke-width="0.81" stroke-linecap="round" stroke-linejoin="round" d="M668.7,469.7
		c-0.46,0.49-1.07,0.79-1.75,0.79c-1.44,0-2.6-1.37-2.6-3.06s1.16-3.06,2.6-3.06c0.67,0,1.29,0.3,1.75,0.79"/>
	<polyline fill="none" stroke="#000000" stroke-width="0.81" stroke-linecap="round" stroke-linejoin="round" points="
		660.08,464.37 660.08,470.49 662.97,470.49 	"/>
	<g>
		
			<line fill="none" stroke="#000000" stroke-width="0.81" stroke-linecap="round" stroke-linejoin="round" x1="670.5" y1="470.49" x2="670.5" y2="464.37"/>
		
			<line fill="none" stroke="#000000" stroke-width="0.81" stroke-linecap="round" stroke-linejoin="round" x1="674.45" y1="464.37" x2="670.5" y2="468.38"/>
		
			<line fill="none" stroke="#000000" stroke-width="0.81" stroke-linecap="round" stroke-linejoin="round" x1="674.45" y1="470.49" x2="671.94" y2="466.92"/>
	</g>
	<path fill="none" stroke="#000000" stroke-width="0.81" stroke-linecap="round" stroke-linejoin="round" d="M657.07,469.7
		c-0.46,0.49-1.07,0.79-1.75,0.79c-1.43,0-2.6-1.37-2.6-3.06s1.16-3.06,2.6-3.06c0.67,0,1.29,0.3,1.75,0.79"/>
	<g>
		<path fill="none" stroke="#000000" stroke-width="0.81" stroke-linecap="round" stroke-linejoin="round" d="M646.83,469.23
			c0.24,0.72,1.13,1.26,2.18,1.26c1.24,0,2.25-0.75,2.25-1.66c0-0.92-1-1.67-2.25-1.67"/>
		<path fill="none" stroke="#000000" stroke-width="0.81" stroke-linecap="round" stroke-linejoin="round" d="M650.83,465.43
			c-0.2-0.61-0.94-1.06-1.82-1.06c-1.04,0-1.88,0.62-1.88,1.39c0,0.77,0.84,1.39,1.88,1.39"/>
	</g>
</g>
<g>
	<path fill="none" stroke="#000000" stroke-width="0.81" stroke-linecap="round" stroke-linejoin="round" d="M716.24,464.37v3.78
		c0,1.29-0.93,2.34-2.09,2.34c-1.15,0-2.09-1.05-2.09-2.34v-3.78"/>
	<path fill="none" stroke="#000000" stroke-width="0.81" stroke-linecap="round" stroke-linejoin="round" d="M701.19,467.43h2.01
		c0.75,0,1.37-0.68,1.37-1.53c0-0.84-0.61-1.53-1.37-1.53h-2.01v6.12"/>
	<g>
		<polyline fill="none" stroke="#000000" stroke-width="0.81" stroke-linecap="round" stroke-linejoin="round" points="
			705.74,470.49 708.01,464.39 710.28,470.49 		"/>
		
			<line fill="none" stroke="#000000" stroke-width="0.81" stroke-linecap="round" stroke-linejoin="round" x1="706.34" y1="468.89" x2="709.68" y2="468.89"/>
	</g>
	<g>
		<polyline fill="none" stroke="#000000" stroke-width="0.81" stroke-linecap="round" stroke-linejoin="round" points="
			729.19,464.39 725.7,464.39 725.7,470.49 729.19,470.49 		"/>
		
			<line fill="none" stroke="#000000" stroke-width="0.81" stroke-linecap="round" stroke-linejoin="round" x1="728.16" y1="467.25" x2="725.7" y2="467.25"/>
	</g>
	<g>
		<path fill="none" stroke="#000000" stroke-width="0.81" stroke-linecap="round" stroke-linejoin="round" d="M718.57,469.23
			c0.28,0.72,1.28,1.26,2.48,1.26c1.41,0,2.56-0.75,2.56-1.66c0-0.92-1.15-1.67-2.56-1.67"/>
		<path fill="none" stroke="#000000" stroke-width="0.81" stroke-linecap="round" stroke-linejoin="round" d="M723.13,465.43
			c-0.23-0.61-1.07-1.06-2.08-1.06c-1.18,0-2.14,0.62-2.14,1.39c0,0.77,0.96,1.39,2.14,1.39"/>
	</g>
</g>
<g>
	<path fill="none" stroke="#000000" stroke-width="0.81" stroke-linecap="round" stroke-linejoin="round" d="M113.25,362.59
		c-0.45,0.49-1.05,0.79-1.71,0.79c-1.41,0-2.55-1.37-2.55-3.06c0-1.69,1.14-3.06,2.55-3.06c0.66,0,1.26,0.3,1.71,0.79"/>
	<path fill="none" stroke="#000000" stroke-width="0.81" stroke-linecap="round" stroke-linejoin="round" d="M121.87,360.32h1.87
		c0.7,0,1.27-0.68,1.27-1.53c0-0.84-0.57-1.53-1.27-1.53h-1.87v6.12"/>
	<g>
		<polyline fill="none" stroke="#000000" stroke-width="0.81" stroke-linecap="round" stroke-linejoin="round" points="
			115.45,363.38 117.56,357.28 119.68,363.38 		"/>
		
			<line fill="none" stroke="#000000" stroke-width="0.81" stroke-linecap="round" stroke-linejoin="round" x1="116" y1="361.78" x2="119.12" y2="361.78"/>
	</g>
	<g>
		<path fill="none" stroke="#000000" stroke-width="0.81" stroke-linecap="round" stroke-linejoin="round" d="M126.82,362.12
			c0.24,0.72,1.1,1.26,2.14,1.26c1.22,0,2.2-0.74,2.2-1.66s-0.99-1.67-2.2-1.67"/>
		<path fill="none" stroke="#000000" stroke-width="0.81" stroke-linecap="round" stroke-linejoin="round" d="M130.74,358.32
			c-0.2-0.61-0.92-1.06-1.79-1.06c-1.02,0-1.84,0.62-1.84,1.39c0,0.77,0.82,1.39,1.84,1.39"/>
	</g>
</g>
<path fill="none" stroke="#000000" stroke-width="1.35" stroke-linecap="round" d="M113.93,308.23c1.63-2.19,4.1-2.43,6.15-0.9
	c2.05,1.53,4.62,1.16,6.16-0.9"/>
<path fill="none" stroke="#000000" stroke-width="1.35" stroke-linecap="round" stroke-linejoin="round" d="M714.71,356.3
	c0.85,1.5,1.33,3.23,1.33,5.08c0,1.84-0.49,3.58-1.33,5.07"/>
<path fill="none" stroke="#000000" stroke-width="1.35" stroke-linecap="round" stroke-linejoin="round" d="M662.06,356.3
	c-0.85,1.5-1.33,3.23-1.33,5.08c0,1.84,0.49,3.58,1.33,5.07"/>
<g>
	<line fill="none" stroke="#000000" stroke-width="1.35" stroke-linecap="round" x1="642.99" y1="311.4" x2="660.78" y2="311.4"/>
	<line fill="none" stroke="#000000" stroke-width="1.35" stroke-linecap="round" x1="667.44" y1="306.42" x2="676.34" y2="306.42"/>
</g>
<g>
	<g>
		
			<line fill="none" stroke="#000000" stroke-width="1.35" stroke-linecap="round" x1="729.81" y1="304.77" x2="723.36" y2="304.77"/>
		
			<line fill="none" stroke="#000000" stroke-width="1.35" stroke-linecap="round" x1="729.81" y1="308.07" x2="723.36" y2="308.07"/>
	</g>
	<g>
		
			<line fill="none" stroke="#000000" stroke-width="1.35" stroke-linecap="round" x1="706.58" y1="311.48" x2="706.58" y2="301.32"/>
		
			<line fill="none" stroke="#000000" stroke-width="1.35" stroke-linecap="round" x1="706.58" y1="311.48" x2="706.58" y2="301.32"/>
		<line fill="none" stroke="#000000" stroke-width="1.35" stroke-linecap="round" x1="711.67" y1="306.4" x2="701.5" y2="306.4"/>
	</g>
</g>
<g>
	<path fill="none" stroke="#000000" stroke-width="1.35" stroke-linecap="round" stroke-linejoin="round" d="M488.26,463.71
		c0.85,1.5,1.34,3.23,1.34,5.08c0,1.84-0.49,3.58-1.33,5.07"/>
	
		<ellipse fill="none" stroke="#000000" stroke-width="1.35" stroke-linecap="round" stroke-linejoin="round" cx="505.71" cy="468.59" rx="4.2" ry="5.07"/>
</g>
<g>
	<g>
		<g>
			<path fill="none" stroke="#000000" stroke-width="1.35" stroke-linecap="round" stroke-linejoin="round" d="M486.2,364.34
				c0.33,0.93,1.55,1.63,2.99,1.63c1.7,0,3.08-0.96,3.08-2.14c0-1.19-1.38-2.15-3.08-2.15"/>
			<path fill="none" stroke="#000000" stroke-width="1.35" stroke-linecap="round" stroke-linejoin="round" d="M491.86,359.3
				c-0.3-0.83-1.38-1.45-2.66-1.45c-1.52,0-2.75,0.86-2.75,1.91c0,1.06,1.23,1.91,2.75,1.91"/>
			
				<line fill="none" stroke="#000000" stroke-width="1.35" stroke-linecap="round" stroke-linejoin="round" x1="489.19" y1="357.85" x2="489.19" y2="356.84"/>
			
				<line fill="none" stroke="#000000" stroke-width="1.35" stroke-linecap="round" stroke-linejoin="round" x1="489.19" y1="366.98" x2="489.19" y2="365.97"/>
		</g>
		<g>
			
				<line fill="#FFFFFF" stroke="#000000" stroke-width="1.35" stroke-linecap="round" stroke-linejoin="round" x1="507.86" y1="361.18" x2="507.86" y2="366.79"/>
			<polyline fill="none" stroke="#000000" stroke-width="1.35" stroke-linecap="round" stroke-linejoin="round" points="
				509.68,363.97 501.83,363.97 507.86,356.6 			"/>
		</g>
	</g>
	<g>
		<g>
			
				<line fill="none" stroke="#000000" stroke-width="1.35" stroke-linecap="round" x1="540.2" y1="366.94" x2="546.23" y2="356.89"/>
			<circle fill="none" stroke="#000000" stroke-width="1.35" stroke-linecap="round" cx="539.81" cy="358.91" r="1.96"/>
			<circle fill="none" stroke="#000000" stroke-width="1.35" stroke-linecap="round" cx="546.62" cy="364.91" r="1.96"/>
		</g>
		<path fill="none" stroke="#000000" stroke-width="1.35" stroke-linecap="round" stroke-linejoin="round" d="M556.66,364.97
			c0.54,1.08,1.65,1.81,2.94,1.81c1.82,0,3.29-1.47,3.29-3.29c0-1.82-1.47-3.29-3.29-3.29c-1.19,0-2.22,0.63-2.8,1.57l0.49-5.13
			h4.37"/>
	</g>
	<g>
		<polyline fill="none" stroke="#000000" stroke-width="1.35" stroke-linecap="round" stroke-linejoin="round" points="
			602.6,366.98 597.19,356.84 591.78,366.98 		"/>
		<g>
			
				<ellipse fill="none" stroke="#000000" stroke-width="1.35" stroke-linecap="round" stroke-linejoin="round" cx="614.06" cy="363.65" rx="3.46" ry="3.14"/>
			<path fill="none" stroke="#000000" stroke-width="1.35" stroke-linecap="round" stroke-linejoin="round" d="M611.23,365.45
				c-0.79-0.93-1.16-2.29-1.16-3.75c0-2.81,1.83-5.08,4.1-5.08c1.3,0,2.46,0.76,3.21,1.93"/>
		</g>
	</g>
</g>
<g>
	<g>
		<g>
			
				<line fill="none" stroke="#000000" stroke-width="1.35" stroke-linecap="round" x1="543.93" y1="313.02" x2="543.93" y2="302.89"/>
			
				<line fill="none" stroke="#000000" stroke-width="1.35" stroke-linecap="round" x1="543.93" y1="313.02" x2="543.93" y2="302.89"/>
			<line fill="none" stroke="#000000" stroke-width="1.35" stroke-linecap="round" x1="549" y1="307.96" x2="538.86" y2="307.96"/>
			
				<line fill="none" stroke="#000000" stroke-width="1.35" stroke-linecap="round" x1="547.52" y1="311.54" x2="540.35" y2="304.37"/>
			
				<line fill="none" stroke="#000000" stroke-width="1.35" stroke-linecap="round" x1="547.52" y1="311.54" x2="540.35" y2="304.37"/>
			
				<line fill="none" stroke="#000000" stroke-width="1.35" stroke-linecap="round" x1="547.52" y1="304.37" x2="540.35" y2="311.54"/>
		</g>
		<g>
			
				<ellipse fill="none" stroke="#000000" stroke-width="1.35" stroke-linecap="round" stroke-linejoin="round" cx="560.63" cy="309.91" rx="3.39" ry="2.92"/>
			
				<ellipse fill="none" stroke="#000000" stroke-width="1.35" stroke-linecap="round" stroke-linejoin="round" cx="560.63" cy="304.84" rx="2.42" ry="2.15"/>
		</g>
	</g>
	<g>
		<path fill="none" stroke="#000000" stroke-width="1.35" stroke-linecap="round" stroke-linejoin="round" d="M598.58,302.88
			c-0.85,1.5-1.33,3.23-1.33,5.08c0,1.84,0.49,3.58,1.33,5.07"/>
		<g>
			
				<ellipse fill="none" stroke="#000000" stroke-width="1.35" stroke-linecap="round" stroke-linejoin="round" cx="614.38" cy="305.8" rx="3.46" ry="3.14"/>
			<path fill="none" stroke="#000000" stroke-width="1.35" stroke-linecap="round" stroke-linejoin="round" d="M617.21,304
				c0.79,0.93,1.16,2.29,1.16,3.75c0,2.81-1.83,5.08-4.1,5.08c-1.3,0-2.46-0.75-3.21-1.93"/>
		</g>
	</g>
	<g>
		<path fill="none" stroke="#000000" stroke-width="1.35" stroke-linecap="round" stroke-linejoin="round" d="M493.63,312.49
			c-0.51-0.44-3.81-4-5.79-6.27c-1.3-1.49-0.38-3.35,1.02-3.35c1.72,0,2.21,1.78,1.34,3c-0.92,1.29-3.91,2.3-3.91,4.39
			c0,1.51,1.26,2.78,2.54,2.78c1.79,0,3.17-1.54,3.92-4.08"/>
		<path fill="none" stroke="#000000" stroke-width="1.35" stroke-linecap="round" stroke-linejoin="round" d="M503.05,302.69h7.11
			c-2.04,1.25-4.35,5.93-4.35,10.14"/>
	</g>
</g>
<g>
	<g>
		<g>
			<g>
				
					<line fill="none" stroke="#000000" stroke-width="1.08" stroke-linecap="round" stroke-linejoin="round" x1="488.89" y1="420.25" x2="488.89" y2="420.25"/>
				
					<circle fill="none" stroke="#000000" stroke-width="1.08" stroke-linecap="round" stroke-linejoin="round" cx="488.89" cy="420.25" r="0.67"/>
			</g>
			<g>
				
					<path fill="none" stroke="#000000" stroke-width="1.08" stroke-linecap="round" stroke-linejoin="round" stroke-miterlimit="10" d="
					M489.56,411.5c0-0.02,0-0.05,0-0.07c0-0.37-0.3-0.67-0.67-0.67c-0.37,0-0.67,0.3-0.67,0.67c0,0.02,0,0.05,0,0.07l0,0l0.66,5.93
					L489.56,411.5z"/>
				
					<line fill="none" stroke="#000000" stroke-width="1.08" stroke-linecap="round" stroke-linejoin="round" stroke-miterlimit="10" x1="488.89" y1="411.43" x2="488.89" y2="412.77"/>
			</g>
		</g>
		<polyline fill="none" stroke="#000000" stroke-width="1.35" stroke-linecap="round" stroke-linejoin="round" points="
			506.1,420.71 506.1,410.55 504.64,412.76 		"/>
	</g>
	<g>
		<g>
			<g>
				
					<line fill="none" stroke="#000000" stroke-width="1.35" stroke-linecap="round" x1="601.56" y1="414.21" x2="593.03" y2="414.21"/>
				
					<line fill="none" stroke="#000000" stroke-width="1.35" stroke-linecap="round" x1="600.84" y1="417.47" x2="592.31" y2="417.47"/>
			</g>
			<g>
				
					<line fill="none" stroke="#000000" stroke-width="1.35" stroke-linecap="round" x1="596.42" y1="410.77" x2="594.18" y2="420.91"/>
				
					<line fill="none" stroke="#000000" stroke-width="1.35" stroke-linecap="round" x1="599.69" y1="410.77" x2="597.45" y2="420.91"/>
			</g>
		</g>
		<g>
			<path fill="none" stroke="#000000" stroke-width="1.35" stroke-linecap="round" stroke-linejoin="round" d="M613.67,414.91
				c1.5,0.24,2.65,1.44,2.65,2.88c0,1.61-1.44,2.92-3.21,2.92c-1.07,0-2.02-0.48-2.6-1.22"/>
			<path fill="none" stroke="#000000" stroke-width="1.35" stroke-linecap="round" stroke-linejoin="round" d="M611.08,411.5
				c0.46-0.57,1.22-0.94,2.08-0.94c1.4,0,2.54,0.98,2.54,2.2c0,1.06-0.87,1.95-2.02,2.15"/>
		</g>
	</g>
	<g>
		<path fill="none" stroke="#000000" stroke-width="1.35" stroke-linecap="round" stroke-linejoin="round" d="M562.6,420.71h-6.42
			c0,0,0.16-3.41,4.17-4.72c1.2-0.39,2.25-1.39,2.25-2.65c0-1.53-1.4-2.76-3.13-2.76c-1.44,0-2.65,0.86-3.02,2.02"/>
		<g>
			<path fill="none" stroke="#000000" stroke-width="1.35" stroke-linecap="round" stroke-linejoin="round" d="M544.99,413.54
				c0,0-0.47,3.36-0.64,5.12c-0.11,1.09,1.21,1.71,2.08,0.79c0.88-0.92,1.42-2.17,1.42-3.55c0-2.84-2.3-5.14-5.14-5.14
				c-2.84,0-5.14,2.3-5.14,5.14c0,2.44,1.69,4.47,3.96,5.01"/>
			<path fill="none" stroke="#000000" stroke-width="1.35" stroke-linecap="round" stroke-linejoin="round" d="M544.74,415.43
				c-0.15-1.06-0.76-1.89-1.62-2.04c-1.15-0.2-2.31,0.91-2.58,2.48s0.44,3,1.59,3.2c0.95,0.17,1.9-0.56,2.36-1.7"/>
		</g>
	</g>
</g>
<g>
	<path fill="none" stroke="#000000" stroke-width="0.81" stroke-linecap="round" stroke-linejoin="round" d="M423.29,465.67v3.78
		c0,1.29-1.05,2.34-2.34,2.34s-2.34-1.05-2.34-2.34v-3.78"/>
	<g>
		<polyline fill="none" stroke="#000000" stroke-width="0.81" stroke-linecap="round" stroke-linejoin="round" points="
			409.35,465.68 405.45,465.68 405.45,471.78 409.35,471.78 		"/>
		
			<line fill="none" stroke="#000000" stroke-width="0.81" stroke-linecap="round" stroke-linejoin="round" x1="408.2" y1="468.54" x2="405.45" y2="468.54"/>
	</g>
	<polyline fill="none" stroke="#000000" stroke-width="0.81" stroke-linecap="round" stroke-linejoin="round" points="
		432.86,471.78 432.86,465.67 437.35,471.78 437.35,465.67 	"/>
	<g>
		
			<line fill="none" stroke="#000000" stroke-width="0.81" stroke-linecap="round" stroke-linejoin="round" x1="411.66" y1="465.67" x2="416.31" y2="465.67"/>
		
			<line fill="none" stroke="#000000" stroke-width="0.81" stroke-linecap="round" stroke-linejoin="round" x1="413.99" y1="471.78" x2="413.99" y2="465.67"/>
	</g>
	<g>
		<path fill="none" stroke="#000000" stroke-width="0.81" stroke-linecap="round" stroke-linejoin="round" d="M398.66,468.72h2.48
			c0.85,0,1.53-0.69,1.53-1.53c0-0.85-0.69-1.53-1.53-1.53h-2.48v6.12"/>
		
			<line fill="none" stroke="#000000" stroke-width="0.81" stroke-linecap="round" stroke-linejoin="round" x1="401.06" y1="468.77" x2="402.65" y2="471.78"/>
	</g>
	<g>
		<path fill="none" stroke="#000000" stroke-width="0.81" stroke-linecap="round" stroke-linejoin="round" d="M426.07,468.72h2.48
			c0.84,0,1.53-0.69,1.53-1.53c0-0.85-0.69-1.53-1.53-1.53h-2.48v6.12"/>
		
			<line fill="none" stroke="#000000" stroke-width="0.81" stroke-linecap="round" stroke-linejoin="round" x1="428.48" y1="468.77" x2="430.06" y2="471.78"/>
	</g>
</g>
<g>
	<line fill="none" stroke="#000000" stroke-width="1.35" stroke-linecap="round" x1="672.34" y1="420.36" x2="664.4" y2="410.21"/>
	<line fill="none" stroke="#000000" stroke-width="1.35" stroke-linecap="round" x1="651.09" y1="420.37" x2="651.09" y2="410.21"/>
</g>
<circle fill="none" stroke="#000000" stroke-width="1.35" stroke-linecap="round" stroke-linejoin="round" cx="606.46" cy="468.52" r="0.68"/>
<path fill="#808080" d="M480.55,698.19h36.06c3.98,0,7.21,3.23,7.21,7.21l0,0v36.05c0,3.98-3.23,7.21-7.21,7.21l0,0h-36.06
	c-3.98,0-7.21-3.23-7.21-7.21l0,0V705.4C473.34,701.42,476.57,698.19,480.55,698.19L480.55,698.19z"/>
<g>
	<path fill="none" stroke="#000000" stroke-width="0.81" stroke-linecap="round" stroke-linejoin="round" d="M722.25,720.37
		c1.29,0,2.4,1.38,2.4,3.07c0,1.69-1.11,3.04-2.4,3.04l-2.17,0.01v-6.11L722.25,720.37z"/>
	<g>
		<polyline fill="none" stroke="#000000" stroke-width="0.81" stroke-linecap="round" stroke-linejoin="round" points="
			709.59,720.39 705.68,720.39 705.68,726.49 709.59,726.49 		"/>
		
			<line fill="none" stroke="#000000" stroke-width="0.81" stroke-linecap="round" stroke-linejoin="round" x1="708.44" y1="723.25" x2="705.68" y2="723.25"/>
	</g>
	<polyline fill="none" stroke="#000000" stroke-width="0.81" stroke-linecap="round" stroke-linejoin="round" points="
		712.55,726.49 712.55,720.37 717.04,726.49 717.04,720.37 	"/>
</g>
<g>
	<g>
		<path fill="none" stroke="#000000" stroke-width="0.81" stroke-linecap="round" stroke-linejoin="round" d="M615.04,720.37v3.78
			c0,1.29-1.05,2.34-2.34,2.34c-1.29,0-2.34-1.05-2.34-2.34v-3.78"/>
		<path fill="none" stroke="#000000" stroke-width="0.81" stroke-linecap="round" stroke-linejoin="round" d="M617.95,723.43h2.25
			c0.85,0,1.53-0.68,1.53-1.53s-0.68-1.53-1.53-1.53h-2.25v6.12"/>
	</g>
	<g>
		<path fill="none" stroke="#000000" stroke-width="0.81" stroke-linecap="round" stroke-linejoin="round" d="M603.54,721.38
			c-0.56-0.62-1.37-1-2.27-1c-1.69,0-3.06,1.37-3.06,3.06c0,1.69,1.37,3.06,3.06,3.06c1.02,0,1.92-0.5,2.48-1.26v-1.8h-1.16"/>
		<path fill="none" stroke="#000000" stroke-width="0.81" stroke-linecap="round" stroke-linejoin="round" d="M592.09,723.43h2.25
			c0.85,0,1.53-0.69,1.53-1.53c0-0.84-0.68-1.53-1.53-1.53h-2.25v6.12"/>
	</g>
</g>
<g>
	<g>
		<path fill="none" stroke="#000000" stroke-width="0.81" stroke-linecap="round" stroke-linejoin="round" d="M665.95,720.37
			c1.29,0,2.4,1.38,2.4,3.07c0,1.69-1.11,3.04-2.4,3.04l-2.17,0.01v-6.11L665.95,720.37z"/>
		<polyline fill="none" stroke="#000000" stroke-width="0.81" stroke-linecap="round" stroke-linejoin="round" points="
			671.79,726.49 671.79,720.37 676.65,726.49 676.65,720.37 		"/>
	</g>
	<g>
		<path fill="none" stroke="#000000" stroke-width="0.81" stroke-linecap="round" stroke-linejoin="round" d="M656.88,721.37
			c-0.56-0.62-1.37-1-2.27-1c-1.69,0-3.06,1.37-3.06,3.06c0,1.69,1.37,3.06,3.06,3.06c1.02,0,1.92-0.5,2.48-1.26v-1.8h-1.16"/>
		<path fill="none" stroke="#000000" stroke-width="0.81" stroke-linecap="round" stroke-linejoin="round" d="M645.43,723.43h2.25
			c0.85,0,1.53-0.69,1.53-1.53c0-0.84-0.68-1.53-1.53-1.53h-2.25v6.12"/>
	</g>
</g>
<g>
	
		<circle fill="none" stroke="#000000" stroke-width="0.81" stroke-linecap="round" stroke-linejoin="round" cx="548.83" cy="723.43" r="3.06"/>
	<g>
		<polyline fill="none" stroke="#000000" stroke-width="0.81" stroke-linecap="round" stroke-linejoin="round" points="
			566.79,720.39 562.88,720.39 562.88,726.49 566.79,726.49 		"/>
		
			<line fill="none" stroke="#000000" stroke-width="0.81" stroke-linecap="round" stroke-linejoin="round" x1="565.63" y1="723.25" x2="562.88" y2="723.25"/>
	</g>
	<g>
		
			<line fill="none" stroke="#000000" stroke-width="0.81" stroke-linecap="round" stroke-linejoin="round" x1="538.76" y1="726.49" x2="538.76" y2="720.37"/>
		
			<line fill="none" stroke="#000000" stroke-width="0.81" stroke-linecap="round" stroke-linejoin="round" x1="543.47" y1="726.49" x2="543.47" y2="720.37"/>
		
			<line fill="none" stroke="#000000" stroke-width="0.81" stroke-linecap="round" stroke-linejoin="round" x1="543.47" y1="723.07" x2="538.76" y2="723.07"/>
	</g>
	<polyline fill="none" stroke="#000000" stroke-width="0.81" stroke-linecap="round" stroke-linejoin="round" points="554.3,726.49 
		554.3,720.37 557.25,726.02 560.2,720.37 560.2,726.49 	"/>
</g>
<g>
	<g>
		<g>
			<polyline fill="none" stroke="#000000" stroke-width="0.81" stroke-linecap="round" stroke-linejoin="round" points="
				119.04,558.25 114.86,558.25 114.86,564.4 			"/>
			
				<line fill="none" stroke="#000000" stroke-width="0.81" stroke-linecap="round" stroke-linejoin="round" x1="117.28" y1="560.98" x2="114.86" y2="560.98"/>
		</g>
		
			<line fill="none" stroke="#000000" stroke-width="0.81" stroke-linecap="round" stroke-linejoin="round" x1="121.86" y1="564.4" x2="121.86" y2="558.25"/>
	</g>
	<g>
		<g>
			<polyline fill="none" stroke="#000000" stroke-width="0.81" stroke-linecap="round" stroke-linejoin="round" points="
				171.23,558.25 167.05,558.25 167.05,564.4 			"/>
			
				<line fill="none" stroke="#000000" stroke-width="0.81" stroke-linecap="round" stroke-linejoin="round" x1="169.47" y1="560.98" x2="167.05" y2="560.98"/>
		</g>
		<path fill="none" stroke="#000000" stroke-width="0.81" stroke-linecap="round" stroke-linejoin="round" d="M178.22,564.4h-4.85
			c0,0,0.59-2.16,3.15-2.72c1.15-0.25,1.7-0.88,1.7-1.68c0-0.97-1.06-1.75-2.37-1.75c-1.09,0-2,0.54-2.28,1.28"/>
	</g>
	<g>
		<g>
			<polyline fill="none" stroke="#000000" stroke-width="0.81" stroke-linecap="round" stroke-linejoin="round" points="
				660.3,558.25 656.11,558.25 656.11,564.4 			"/>
			
				<line fill="none" stroke="#000000" stroke-width="0.81" stroke-linecap="round" stroke-linejoin="round" x1="658.53" y1="560.98" x2="656.11" y2="560.98"/>
		</g>
		
			<line fill="none" stroke="#000000" stroke-width="0.81" stroke-linecap="round" stroke-linejoin="round" x1="663.29" y1="564.4" x2="663.29" y2="558.25"/>
		
			<line fill="none" stroke="#000000" stroke-width="0.81" stroke-linecap="round" stroke-linejoin="round" x1="666.09" y1="564.4" x2="666.09" y2="558.25"/>
	</g>
	<g>
		<g>
			<polyline fill="none" stroke="#000000" stroke-width="0.81" stroke-linecap="round" stroke-linejoin="round" points="
				712.7,558.25 708.52,558.25 708.52,564.4 			"/>
			
				<line fill="none" stroke="#000000" stroke-width="0.81" stroke-linecap="round" stroke-linejoin="round" x1="710.94" y1="560.98" x2="708.52" y2="560.98"/>
		</g>
		
			<line fill="none" stroke="#000000" stroke-width="0.81" stroke-linecap="round" stroke-linejoin="round" x1="715.06" y1="564.4" x2="715.06" y2="558.25"/>
		<path fill="none" stroke="#000000" stroke-width="0.81" stroke-linecap="round" stroke-linejoin="round" d="M722.24,564.4h-4.85
			c0,0,0.59-2.16,3.15-2.72c1.15-0.25,1.7-0.88,1.7-1.68c0-0.97-1.06-1.75-2.37-1.75c-1.09,0-2,0.54-2.28,1.28"/>
	</g>
	<g>
		<g>
			<polyline fill="none" stroke="#000000" stroke-width="0.81" stroke-linecap="round" stroke-linejoin="round" points="
				279.64,558.25 275.46,558.25 275.46,564.4 			"/>
			
				<line fill="none" stroke="#000000" stroke-width="0.81" stroke-linecap="round" stroke-linejoin="round" x1="277.88" y1="560.98" x2="275.46" y2="560.98"/>
		</g>
		<polyline fill="none" stroke="#000000" stroke-width="0.81" stroke-linecap="round" stroke-linejoin="round" points="
			285.31,564.4 285.31,558.22 281.32,562.74 286.91,562.74 		"/>
	</g>
	<g>
		<g>
			<polyline fill="none" stroke="#000000" stroke-width="0.81" stroke-linecap="round" stroke-linejoin="round" points="
				334.21,558.25 330.03,558.25 330.03,564.4 			"/>
			
				<line fill="none" stroke="#000000" stroke-width="0.81" stroke-linecap="round" stroke-linejoin="round" x1="332.45" y1="560.98" x2="330.03" y2="560.98"/>
		</g>
		<path fill="none" stroke="#000000" stroke-width="0.81" stroke-linecap="round" stroke-linejoin="round" d="M336.65,563.48
			c0.39,0.55,1.13,0.92,1.96,0.92c1.26,0,2.27-0.83,2.27-1.86c0-1.03-1.02-1.86-2.27-1.86c-0.82,0-1.54,0.36-1.94,0.89l0.39-3.32
			h3.09"/>
	</g>
	<g>
		<g>
			<polyline fill="none" stroke="#000000" stroke-width="0.81" stroke-linecap="round" stroke-linejoin="round" points="
				603.61,558.25 599.42,558.25 599.42,564.4 			"/>
			
				<line fill="none" stroke="#000000" stroke-width="0.81" stroke-linecap="round" stroke-linejoin="round" x1="601.84" y1="560.98" x2="599.42" y2="560.98"/>
		</g>
		
			<line fill="none" stroke="#000000" stroke-width="0.81" stroke-linecap="round" stroke-linejoin="round" x1="605.87" y1="564.4" x2="605.87" y2="558.25"/>
		
			<circle fill="none" stroke="#000000" stroke-width="0.81" stroke-linecap="round" stroke-linejoin="round" cx="611.16" cy="561.33" r="3.08"/>
	</g>
	<g>
		<g>
			<polyline fill="none" stroke="#000000" stroke-width="0.81" stroke-linecap="round" stroke-linejoin="round" points="
				497.22,558.25 493.03,558.25 493.03,564.4 			"/>
			
				<line fill="none" stroke="#000000" stroke-width="0.81" stroke-linecap="round" stroke-linejoin="round" x1="495.45" y1="560.98" x2="493.03" y2="560.98"/>
		</g>
		<g>
			
				<ellipse fill="none" stroke="#000000" stroke-width="0.81" stroke-linecap="round" stroke-linejoin="round" cx="501.38" cy="562.68" rx="2.15" ry="1.73"/>
			
				<ellipse fill="none" stroke="#000000" stroke-width="0.81" stroke-linecap="round" stroke-linejoin="round" cx="501.38" cy="559.6" rx="1.77" ry="1.35"/>
		</g>
	</g>
	<g>
		<g>
			<polyline fill="none" stroke="#000000" stroke-width="0.81" stroke-linecap="round" stroke-linejoin="round" points="
				388.66,558.26 384.48,558.26 384.48,564.4 			"/>
			
				<line fill="none" stroke="#000000" stroke-width="0.81" stroke-linecap="round" stroke-linejoin="round" x1="386.9" y1="560.99" x2="384.48" y2="560.99"/>
		</g>
		<g>
			
				<ellipse fill="none" stroke="#000000" stroke-width="0.81" stroke-linecap="round" stroke-linejoin="round" cx="393.04" cy="562.64" rx="1.95" ry="1.77"/>
			<path fill="none" stroke="#000000" stroke-width="0.81" stroke-linecap="round" stroke-linejoin="round" d="M391.53,563.75
				c-0.54-0.56-0.9-1.54-0.9-2.42c0-1.7,1.25-3.08,2.79-3.08c0.35,0,0.67,0.07,0.98,0.19"/>
		</g>
	</g>
	<g>
		<g>
			<polyline fill="none" stroke="#000000" stroke-width="0.81" stroke-linecap="round" stroke-linejoin="round" points="
				551.42,558.25 547.23,558.25 547.23,564.4 			"/>
			
				<line fill="none" stroke="#000000" stroke-width="0.81" stroke-linecap="round" stroke-linejoin="round" x1="549.65" y1="560.98" x2="547.23" y2="560.98"/>
		</g>
		<g>
			
				<ellipse fill="none" stroke="#000000" stroke-width="0.81" stroke-linecap="round" stroke-linejoin="round" cx="555.46" cy="560.02" rx="1.95" ry="1.77"/>
			<path fill="none" stroke="#000000" stroke-width="0.81" stroke-linecap="round" stroke-linejoin="round" d="M556.97,558.9
				c0.54,0.56,0.9,1.54,0.9,2.42c0,1.7-1.25,3.08-2.79,3.08c-0.35,0-0.67-0.07-0.98-0.19"/>
		</g>
	</g>
	<g>
		<g>
			<polyline fill="none" stroke="#000000" stroke-width="0.81" stroke-linecap="round" stroke-linejoin="round" points="
				225.39,558.25 221.2,558.25 221.2,564.4 			"/>
			
				<line fill="none" stroke="#000000" stroke-width="0.81" stroke-linecap="round" stroke-linejoin="round" x1="223.62" y1="560.98" x2="221.2" y2="560.98"/>
		</g>
		<g>
			<path fill="none" stroke="#000000" stroke-width="0.81" stroke-linecap="round" stroke-linejoin="round" d="M228.27,559.2
				c0.27-0.55,1.03-0.95,1.92-0.95c1.12,0,2.03,0.63,2.03,1.4c0,0.77-0.91,1.4-2.03,1.4"/>
			<path fill="none" stroke="#000000" stroke-width="0.81" stroke-linecap="round" stroke-linejoin="round" d="M230.19,561.05
				c1.34,0,2.42,0.75,2.42,1.68c0,0.93-1.08,1.68-2.42,1.68c-1,0-1.87-0.42-2.23-1.02"/>
		</g>
	</g>
	<g>
		<g>
			<polyline fill="none" stroke="#000000" stroke-width="0.81" stroke-linecap="round" stroke-linejoin="round" points="
				442.41,558.25 438.23,558.25 438.23,564.4 			"/>
			
				<line fill="none" stroke="#000000" stroke-width="0.81" stroke-linecap="round" stroke-linejoin="round" x1="440.65" y1="560.98" x2="438.23" y2="560.98"/>
		</g>
		<path fill="none" stroke="#000000" stroke-width="0.81" stroke-linecap="round" stroke-linejoin="round" d="M445.11,558.25h4.67
			c-1.34,0.76-2.86,3.6-2.86,6.15"/>
	</g>
</g>
<g>
	<path fill="none" stroke="#000000" stroke-width="0.81" stroke-linecap="round" stroke-linejoin="round" d="M405.67,725.69
		c-0.47,0.49-1.09,0.79-1.77,0.79c-1.45,0-2.63-1.37-2.63-3.06s1.18-3.06,2.63-3.06c0.68,0,1.3,0.3,1.77,0.79"/>
	<path fill="none" stroke="#000000" stroke-width="0.81" stroke-linecap="round" stroke-linejoin="round" d="M441.1,725.69
		c-0.47,0.49-1.09,0.79-1.77,0.79c-1.45,0-2.63-1.37-2.63-3.06s1.18-3.06,2.63-3.06c0.68,0,1.3,0.3,1.77,0.79"/>
	<path fill="none" stroke="#000000" stroke-width="0.81" stroke-linecap="round" stroke-linejoin="round" d="M425.34,723.43h2.09
		c0.79,0,1.42-0.69,1.42-1.53c0-0.85-0.64-1.53-1.42-1.53h-2.09v6.12"/>
	<g>
		<polyline fill="none" stroke="#000000" stroke-width="0.81" stroke-linecap="round" stroke-linejoin="round" points="
			394.74,726.48 396.93,720.38 399.11,726.48 		"/>
		
			<line fill="none" stroke="#000000" stroke-width="0.81" stroke-linecap="round" stroke-linejoin="round" x1="395.32" y1="724.88" x2="398.54" y2="724.88"/>
	</g>
	<g>
		<polyline fill="none" stroke="#000000" stroke-width="0.81" stroke-linecap="round" stroke-linejoin="round" points="
			430.24,726.48 432.6,720.38 434.97,726.48 		"/>
		
			<line fill="none" stroke="#000000" stroke-width="0.81" stroke-linecap="round" stroke-linejoin="round" x1="430.86" y1="724.88" x2="434.35" y2="724.88"/>
	</g>
	<path fill="none" stroke="#000000" stroke-width="0.81" stroke-linecap="round" stroke-linejoin="round" d="M390.99,723.07
		c0.64,0,1.16-0.61,1.16-1.35s-0.52-1.35-1.16-1.35h-1.94v2.78v3.33l2,0.01c0.81,0,1.47-0.77,1.47-1.71
		C392.51,723.84,391.8,723.07,390.99,723.07h-1.94"/>
	<g>
		
			<line fill="none" stroke="#000000" stroke-width="0.81" stroke-linecap="round" stroke-linejoin="round" x1="407.98" y1="726.48" x2="407.98" y2="720.37"/>
		
			<line fill="none" stroke="#000000" stroke-width="0.81" stroke-linecap="round" stroke-linejoin="round" x1="411.97" y1="720.37" x2="407.98" y2="724.38"/>
		
			<line fill="none" stroke="#000000" stroke-width="0.81" stroke-linecap="round" stroke-linejoin="round" x1="411.97" y1="726.48" x2="409.43" y2="722.92"/>
	</g>
	<g>
		<path fill="none" stroke="#000000" stroke-width="0.81" stroke-linecap="round" stroke-linejoin="round" d="M418.21,725.22
			c0.27,0.72,1.24,1.26,2.39,1.26c1.36,0,2.46-0.74,2.46-1.66s-1.1-1.67-2.46-1.67"/>
		<path fill="none" stroke="#000000" stroke-width="0.81" stroke-linecap="round" stroke-linejoin="round" d="M422.6,721.42
			c-0.22-0.61-1.03-1.06-2-1.06c-1.14,0-2.06,0.62-2.06,1.39c0,0.77,0.92,1.39,2.06,1.39"/>
	</g>
	<g>
		<polyline fill="none" stroke="#000000" stroke-width="0.81" stroke-linecap="round" stroke-linejoin="round" points="
			446.97,720.38 443.32,720.38 443.32,726.48 446.97,726.48 		"/>
		
			<line fill="none" stroke="#000000" stroke-width="0.81" stroke-linecap="round" stroke-linejoin="round" x1="445.89" y1="723.24" x2="443.32" y2="723.24"/>
	</g>
</g>
<g>
	<polyline fill="none" stroke="#000000" stroke-width="1.35" stroke-linecap="round" stroke-linejoin="round" points="
		669.29,619.93 666.6,619.93 666.6,609.79 669.29,609.79 	"/>
	<g>
		<path fill="none" stroke="#000000" stroke-width="1.35" stroke-linecap="round" d="M655.28,619.93c0,0,0,0-0.92,0
			c-0.64,0-1.17-0.5-1.05-1.17c0.57-3.22-0.08-3.29-0.7-3.91"/>
		<path fill="none" stroke="#000000" stroke-width="1.35" stroke-linecap="round" d="M655.28,609.79c0,0,0,0-0.92,0
			c-0.64,0-1.17,0.5-1.05,1.17c0.57,3.22-0.08,3.3-0.7,3.91"/>
	</g>
</g>
<g>
	<g>
		<path fill="none" stroke="#000000" stroke-width="1.35" stroke-linecap="round" d="M706.92,619.93c0,0,0,0,0.92,0
			c0.64,0,1.17-0.5,1.05-1.17c-0.57-3.22,0.08-3.29,0.7-3.91"/>
		<path fill="none" stroke="#000000" stroke-width="1.35" stroke-linecap="round" d="M706.92,609.79c0,0,0,0,0.92,0
			c0.64,0,1.17,0.5,1.05,1.17c-0.57,3.22,0.08,3.3,0.7,3.91"/>
	</g>
	<polyline fill="none" stroke="#000000" stroke-width="1.35" stroke-linecap="round" stroke-linejoin="round" points="
		720.91,619.93 723.6,619.93 723.6,609.79 720.91,609.79 	"/>
</g>
<g>
	
		<circle fill="none" stroke="#FFFFFF" stroke-width="0.81" stroke-linecap="round" stroke-linejoin="round" cx="327.91" cy="468.72" r="3.06"/>
	<g>
		<polyline fill="none" stroke="#FFFFFF" stroke-width="0.81" stroke-linecap="round" stroke-linejoin="round" points="
			346.74,465.67 342.83,465.67 342.83,471.77 346.74,471.77 		"/>
		
			<line fill="none" stroke="#FFFFFF" stroke-width="0.81" stroke-linecap="round" stroke-linejoin="round" x1="345.58" y1="468.53" x2="342.83" y2="468.53"/>
	</g>
	<polyline fill="none" stroke="#FFFFFF" stroke-width="0.81" stroke-linecap="round" stroke-linejoin="round" points="
		333.06,465.67 334.82,471.78 336.59,465.67 338.35,471.78 340.11,465.67 	"/>
	<polyline fill="none" stroke="#FFFFFF" stroke-width="0.81" stroke-linecap="round" stroke-linejoin="round" points="
		319.12,465.67 319.12,471.78 322.52,471.78 	"/>
	<g>
		<path fill="none" stroke="#FFFFFF" stroke-width="0.81" stroke-linecap="round" stroke-linejoin="round" d="M349.45,468.72h2.48
			c0.85,0,1.53-0.68,1.53-1.53s-0.68-1.53-1.53-1.53h-2.48v6.12"/>
		
			<line fill="none" stroke="#FFFFFF" stroke-width="0.81" stroke-linecap="round" stroke-linejoin="round" x1="351.86" y1="468.77" x2="353.44" y2="471.78"/>
	</g>
</g>
<g>
	<g>
		<polyline fill="none" stroke="#FFFFFF" stroke-width="0.81" stroke-linecap="round" stroke-linejoin="round" points="
			489.88,726.49 492.43,720.39 494.96,726.49 		"/>
		
			<line fill="none" stroke="#FFFFFF" stroke-width="0.81" stroke-linecap="round" stroke-linejoin="round" x1="490.55" y1="724.89" x2="494.3" y2="724.89"/>
	</g>
	<g>
		<polyline fill="none" stroke="#FFFFFF" stroke-width="0.81" stroke-linecap="round" stroke-linejoin="round" points="
			514.63,720.39 510.72,720.39 510.72,726.49 514.63,726.49 		"/>
		
			<line fill="none" stroke="#FFFFFF" stroke-width="0.81" stroke-linecap="round" stroke-linejoin="round" x1="513.47" y1="723.25" x2="510.72" y2="723.25"/>
	</g>
	
		<line fill="none" stroke="#FFFFFF" stroke-width="0.81" stroke-linecap="round" stroke-linejoin="round" x1="498.48" y1="726.49" x2="498.48" y2="720.37"/>
	<g>
		<path fill="none" stroke="#FFFFFF" stroke-width="0.81" stroke-linecap="round" stroke-linejoin="round" d="M482.36,723.43h2.49
			c0.84,0,1.53-0.69,1.53-1.53s-0.68-1.53-1.53-1.53h-2.49v6.12"/>
		
			<line fill="none" stroke="#FFFFFF" stroke-width="0.81" stroke-linecap="round" stroke-linejoin="round" x1="484.77" y1="723.48" x2="486.35" y2="726.49"/>
	</g>
	<g>
		<path fill="none" stroke="#FFFFFF" stroke-width="0.81" stroke-linecap="round" stroke-linejoin="round" d="M501.99,725.23
			c0.29,0.72,1.33,1.26,2.57,1.26c1.46,0,2.65-0.75,2.65-1.67c0-0.92-1.19-1.67-2.65-1.67"/>
		<path fill="none" stroke="#FFFFFF" stroke-width="0.81" stroke-linecap="round" stroke-linejoin="round" d="M506.71,721.43
			c-0.24-0.61-1.11-1.06-2.15-1.06c-1.22,0-2.21,0.63-2.21,1.39c0,0.77,0.99,1.39,2.21,1.39"/>
	</g>
</g>
</svg>
