<?xml version="1.0" encoding="utf-8"?>
<!-- Generator: Adobe Illustrator 13.0.0, SVG Export Plug-In . SVG Version: 6.00 Build 14948)  -->
<!DOCTYPE svg PUBLIC "-//W3C//DTD SVG 1.1//EN" "http://www.w3.org/Graphics/SVG/1.1/DTD/svg11.dtd">
<svg version="1.1" xmlns="http://www.w3.org/2000/svg" xmlns:xlink="http://www.w3.org/1999/xlink" x="0px" y="0px"
	 width="657.066px" height="1226.332px" viewBox="0 0 657.066 1226.332" enable-background="new 0 0 657.066 1226.332"
	 xml:space="preserve">
<g id="Board">
	<path fill="#E6E6E6" d="M589.413,43.343H62.515c-9.203,0-16.676,7.467-16.676,16.668v499.986c0,9.203,7.473,16.666,16.676,16.666
		h526.898c9.204,0,16.676-7.463,16.676-16.666V60.011C606.089,50.81,598.617,43.343,589.413,43.343z"/>
	<path fill="#FFFFFF" d="M192.573,76.677c0-7.358,5.976-13.334,13.337-13.334h66.696c7.364,0,13.339,5.976,13.339,13.334v66.664
		c0,7.361-5.975,13.335-13.339,13.335H205.91c-7.361,0-13.337-5.974-13.337-13.335V76.677z"/>
	<path fill="#FFFFFF" d="M192.573,176.674c0-7.358,5.976-13.332,13.337-13.332h66.696c7.364,0,13.339,5.974,13.339,13.332v66.665
		c0,7.361-5.975,13.333-13.339,13.333H205.91c-7.361,0-13.337-5.972-13.337-13.333V176.674z"/>
	<path fill="#FFFFFF" d="M192.573,276.672c0-7.359,5.976-13.332,13.337-13.332h66.696c7.364,0,13.339,5.972,13.339,13.332v66.666
		c0,7.359-5.975,13.331-13.339,13.331H205.91c-7.361,0-13.337-5.972-13.337-13.331V276.672z"/>
	<path fill="#FFFFFF" d="M192.573,376.672c0-7.363,5.976-13.334,13.337-13.334h66.696c7.364,0,13.339,5.971,13.339,13.334v66.662
		c0,7.358-5.975,13.333-13.339,13.333H205.91c-7.361,0-13.337-5.975-13.337-13.333V376.672z"/>
	<path fill="#FFFFFF" d="M385.991,543.333c0,7.359-5.976,13.33-13.34,13.33H205.91c-7.361,0-13.337-5.971-13.337-13.33v-66.666
		c0-7.359,5.976-13.333,13.337-13.333h166.741c7.364,0,13.34,5.974,13.34,13.333V543.333z"/>
	<path fill="#FFFFFF" d="M385.991,443.334c0,7.358-5.976,13.333-13.34,13.333h-66.694c-7.363,0-13.338-5.975-13.338-13.333v-66.662
		c0-7.363,5.975-13.334,13.338-13.334h66.694c7.364,0,13.34,5.971,13.34,13.334V443.334z"/>
	<path fill="#FFFFFF" d="M385.991,343.338c0,7.359-5.976,13.331-13.34,13.331h-66.694c-7.363,0-13.338-5.972-13.338-13.331v-66.666
		c0-7.359,5.975-13.332,13.338-13.332h66.694c7.364,0,13.34,5.972,13.34,13.332V343.338z"/>
	<path fill="#FFFFFF" d="M385.991,243.339c0,7.361-5.976,13.333-13.34,13.333h-66.694c-7.363,0-13.338-5.972-13.338-13.333v-66.665
		c0-7.358,5.975-13.332,13.338-13.332h66.694c7.364,0,13.34,5.974,13.34,13.332V243.339z"/>
	<path fill="#FFFFFF" d="M385.991,143.341c0,7.361-5.976,13.335-13.34,13.335h-66.694c-7.363,0-13.338-5.974-13.338-13.335V76.677
		c0-7.358,5.975-13.334,13.338-13.334h66.694c7.364,0,13.34,5.976,13.34,13.334V143.341z"/>
	<path fill="#FFFFFF" d="M486.036,543.329c0,7.363-5.975,13.334-13.34,13.334h-66.698c-7.363,0-13.338-5.971-13.338-13.334v-66.662
		c0-7.359,5.975-13.333,13.338-13.333h66.698c7.365,0,13.34,5.974,13.34,13.333V543.329z"/>
	<path fill="#FFFFFF" d="M486.036,443.334c0,7.358-5.975,13.333-13.34,13.333h-66.698c-7.363,0-13.338-5.975-13.338-13.333v-66.662
		c0-7.363,5.975-13.334,13.338-13.334h66.698c7.365,0,13.34,5.971,13.34,13.334V443.334z"/>
	<path fill="#FFFFFF" d="M486.036,343.338c0,7.359-5.975,13.331-13.34,13.331h-66.698c-7.363,0-13.338-5.972-13.338-13.331v-66.666
		c0-7.359,5.975-13.332,13.338-13.332h66.698c7.365,0,13.34,5.972,13.34,13.332V343.338z"/>
	<path fill="#FFFFFF" d="M486.036,243.339c0,7.361-5.975,13.333-13.34,13.333h-66.698c-7.363,0-13.338-5.972-13.338-13.333v-66.665
		c0-7.358,5.975-13.332,13.338-13.332h66.698c7.365,0,13.34,5.974,13.34,13.332V243.339z"/>
	<path fill="#FFFFFF" d="M486.036,143.341c0,7.361-5.975,13.335-13.34,13.335h-66.698c-7.363,0-13.338-5.974-13.338-13.335V76.677
		c0-7.358,5.975-13.334,13.338-13.334h66.698c7.365,0,13.34,5.976,13.34,13.334V143.341z"/>
	<path fill="#FFFFFF" d="M586.082,543.329c0,7.363-5.979,13.334-13.343,13.334h-66.696c-7.364,0-13.339-5.971-13.339-13.334V376.667
		c0-7.358,5.975-13.33,13.339-13.33h66.696c7.363,0,13.343,5.971,13.343,13.33V543.329z"/>
	<path fill="#FFFFFF" d="M586.082,343.338c0,7.359-5.979,13.331-13.343,13.331h-66.696c-7.364,0-13.339-5.972-13.339-13.331V176.674
		c0-7.358,5.975-13.332,13.339-13.332h66.696c7.363,0,13.343,5.974,13.343,13.332V343.338z"/>
	<path fill="#FFFFFF" d="M586.082,143.341c0,7.361-5.979,13.335-13.343,13.335h-66.696c-7.364,0-13.339-5.974-13.339-13.335V76.677
		c0-7.358,5.975-13.334,13.339-13.334h66.696c7.363,0,13.343,5.976,13.343,13.334V143.341z"/>
	<path fill="#E6E6E6" d="M589.413,637.343H62.515c-9.203,0-16.676,7.467-16.676,16.668v499.986c0,9.203,7.473,16.666,16.676,16.666
		h526.898c9.204,0,16.676-7.463,16.676-16.666V654.011C606.089,644.81,598.617,637.343,589.413,637.343z"/>
	<path fill="#808080" d="M192.573,670.677c0-7.358,5.976-13.334,13.337-13.334h66.696c7.364,0,13.339,5.976,13.339,13.334v66.664
		c0,7.361-5.975,13.334-13.339,13.334H205.91c-7.361,0-13.337-5.974-13.337-13.334V670.677z"/>
	<path fill="#FFFFFF" d="M192.573,770.674c0-7.358,5.976-13.332,13.337-13.332h66.696c7.364,0,13.339,5.974,13.339,13.332v66.665
		c0,7.361-5.975,13.333-13.339,13.333H205.91c-7.361,0-13.337-5.972-13.337-13.333V770.674z"/>
	<path fill="#FFFFFF" d="M192.573,870.672c0-7.359,5.976-13.332,13.337-13.332h66.696c7.364,0,13.339,5.972,13.339,13.332v66.666
		c0,7.359-5.975,13.331-13.339,13.331H205.91c-7.361,0-13.337-5.972-13.337-13.331V870.672z"/>
	<path fill="#FFFFFF" d="M192.573,970.672c0-7.363,5.976-13.334,13.337-13.334h66.696c7.364,0,13.339,5.971,13.339,13.334v66.662
		c0,7.358-5.975,13.333-13.339,13.333H205.91c-7.361,0-13.337-5.975-13.337-13.333V970.672z"/>
	<path fill="#FFFFFF" d="M385.991,1137.333c0,7.359-5.976,13.33-13.34,13.33H205.91c-7.361,0-13.337-5.971-13.337-13.33v-66.666
		c0-7.359,5.976-13.333,13.337-13.333h166.741c7.364,0,13.34,5.975,13.34,13.333V1137.333z"/>
	<path fill="#FFFFFF" d="M385.991,1037.334c0,7.358-5.976,13.333-13.34,13.333h-66.694c-7.363,0-13.338-5.975-13.338-13.333v-66.662
		c0-7.363,5.975-13.334,13.338-13.334h66.694c7.364,0,13.34,5.971,13.34,13.334V1037.334z"/>
	<path fill="#FFFFFF" d="M385.991,937.338c0,7.359-5.976,13.331-13.34,13.331h-66.694c-7.363,0-13.338-5.972-13.338-13.331v-66.666
		c0-7.359,5.975-13.332,13.338-13.332h66.694c7.364,0,13.34,5.972,13.34,13.332V937.338z"/>
	<path fill="#FFFFFF" d="M385.991,837.339c0,7.361-5.976,13.333-13.34,13.333h-66.694c-7.363,0-13.338-5.972-13.338-13.333v-66.665
		c0-7.358,5.975-13.332,13.338-13.332h66.694c7.364,0,13.34,5.974,13.34,13.332V837.339z"/>
	<path fill="#FFFFFF" d="M385.991,737.341c0,7.361-5.976,13.334-13.34,13.334h-66.694c-7.363,0-13.338-5.974-13.338-13.334v-66.664
		c0-7.358,5.975-13.334,13.338-13.334h66.694c7.364,0,13.34,5.976,13.34,13.334V737.341z"/>
	<path fill="#FFFFFF" d="M486.036,1137.329c0,7.363-5.975,13.334-13.34,13.334h-66.698c-7.363,0-13.338-5.971-13.338-13.334v-66.662
		c0-7.359,5.975-13.333,13.338-13.333h66.698c7.365,0,13.34,5.975,13.34,13.333V1137.329z"/>
	<path fill="#FFFFFF" d="M486.036,1037.334c0,7.358-5.975,13.333-13.34,13.333h-66.698c-7.363,0-13.338-5.975-13.338-13.333v-66.662
		c0-7.363,5.975-13.334,13.338-13.334h66.698c7.365,0,13.34,5.971,13.34,13.334V1037.334z"/>
	<path fill="#FFFFFF" d="M486.036,937.338c0,7.359-5.975,13.331-13.34,13.331h-66.698c-7.363,0-13.338-5.972-13.338-13.331v-66.666
		c0-7.359,5.975-13.332,13.338-13.332h66.698c7.365,0,13.34,5.972,13.34,13.332V937.338z"/>
	<path fill="#FFFFFF" d="M486.036,837.339c0,7.361-5.975,13.333-13.34,13.333h-66.698c-7.363,0-13.338-5.972-13.338-13.333v-66.665
		c0-7.358,5.975-13.332,13.338-13.332h66.698c7.365,0,13.34,5.974,13.34,13.332V837.339z"/>
	<path fill="#FFFFFF" d="M486.036,737.341c0,7.361-5.975,13.334-13.34,13.334h-66.698c-7.363,0-13.338-5.974-13.338-13.334v-66.664
		c0-7.358,5.975-13.334,13.338-13.334h66.698c7.365,0,13.34,5.976,13.34,13.334V737.341z"/>
	<path fill="#FFFFFF" d="M586.082,1137.329c0,7.363-5.979,13.334-13.343,13.334h-66.696c-7.364,0-13.339-5.971-13.339-13.334
		V970.667c0-7.358,5.975-13.33,13.339-13.33h66.696c7.363,0,13.343,5.971,13.343,13.33V1137.329z"/>
	<path fill="#FFFFFF" d="M586.082,937.338c0,7.359-5.979,13.331-13.343,13.331h-66.696c-7.364,0-13.339-5.972-13.339-13.331V770.674
		c0-7.358,5.975-13.332,13.339-13.332h66.696c7.363,0,13.343,5.974,13.343,13.332V937.338z"/>
	<path fill="#FFFFFF" d="M586.082,737.341c0,7.361-5.979,13.334-13.343,13.334h-66.696c-7.364,0-13.339-5.974-13.339-13.334v-66.664
		c0-7.358,5.975-13.334,13.339-13.334h66.696c7.363,0,13.343,5.976,13.343,13.334V737.341z"/>
</g>
<g id="Legends__x28_Line_x29_">
	<g>
		<g>
			<polyline fill="none" stroke="#000000" stroke-width="1.5" stroke-linecap="round" stroke-linejoin="round" points="
				556.09,1048.794 549.703,1048.794 549.703,1060.091 556.09,1060.091 			"/>
			
				<line fill="none" stroke="#000000" stroke-width="1.5" stroke-linecap="round" stroke-linejoin="round" x1="554.203" y1="1054.086" x2="549.703" y2="1054.086"/>
		</g>
		<g>
			<polyline fill="none" stroke="#000000" stroke-width="1.5" stroke-linecap="round" stroke-linejoin="round" points="
				520.899,1048.794 514.513,1048.794 514.513,1060.091 520.899,1060.091 			"/>
			
				<line fill="none" stroke="#000000" stroke-width="1.5" stroke-linecap="round" stroke-linejoin="round" x1="519.012" y1="1054.086" x2="514.513" y2="1054.086"/>
		</g>
		<polyline fill="none" stroke="#000000" stroke-width="1.5" stroke-linecap="round" stroke-linejoin="round" points="
			526.5,1060.091 526.5,1048.762 533.834,1060.091 533.834,1048.762 		"/>
		<g>
			
				<line fill="none" stroke="#000000" stroke-width="1.5" stroke-linecap="round" stroke-linejoin="round" x1="537.781" y1="1048.762" x2="545.381" y2="1048.762"/>
			
				<line fill="none" stroke="#000000" stroke-width="1.5" stroke-linecap="round" stroke-linejoin="round" x1="541.582" y1="1060.091" x2="541.582" y2="1048.762"/>
		</g>
		<g>
			<path fill="none" stroke="#000000" stroke-width="1.5" stroke-linecap="round" stroke-linejoin="round" d="M561.691,1054.426
				h4.058c1.38,0,2.499-1.268,2.499-2.833s-1.119-2.832-2.499-2.832h-4.058v11.33"/>
			
				<line fill="none" stroke="#000000" stroke-width="1.5" stroke-linecap="round" stroke-linejoin="round" x1="565.626" y1="1054.512" x2="568.211" y2="1060.091"/>
		</g>
	</g>
	<g>
		<g>
			<path fill="none" stroke="#FFFFFF" stroke-width="1.5" stroke-linecap="round" stroke-linejoin="round" d="M244.468,689.29v6.996
				c0,2.394-1.939,4.333-4.332,4.333c-2.395,0-4.334-1.94-4.334-4.333v-6.996"/>
			<polyline fill="none" stroke="#FFFFFF" stroke-width="1.5" stroke-linecap="round" stroke-linejoin="round" points="
				249.511,700.619 249.511,689.29 254.978,699.752 260.444,689.29 260.444,700.619 			"/>
			<polyline fill="none" stroke="#FFFFFF" stroke-width="1.5" stroke-linecap="round" stroke-linejoin="round" points="
				222.444,700.619 222.444,689.29 230.759,700.619 230.759,689.29 			"/>
		</g>
		<g>
			<path fill="none" stroke="#FFFFFF" stroke-width="1.5" stroke-linecap="round" stroke-linejoin="round" d="M251.638,716.201
				c-1.09,0.913-2.535,1.471-4.121,1.471c-3.387,0-6.133-2.537-6.133-5.666c0-3.128,2.746-5.665,6.133-5.665
				c1.586,0,3.035,0.558,4.123,1.472"/>
			
				<circle fill="none" stroke="#FFFFFF" stroke-width="1.5" stroke-linecap="round" stroke-linejoin="round" cx="232.406" cy="711.92" r="5.665"/>
			<polyline fill="none" stroke="#FFFFFF" stroke-width="1.5" stroke-linecap="round" stroke-linejoin="round" points="
				217.698,706.256 217.698,717.585 224.515,717.585 			"/>
			<g>
				
					<line fill="none" stroke="#FFFFFF" stroke-width="1.5" stroke-linecap="round" stroke-linejoin="round" x1="255.884" y1="717.585" x2="255.884" y2="706.256"/>
				
					<line fill="none" stroke="#FFFFFF" stroke-width="1.5" stroke-linecap="round" stroke-linejoin="round" x1="265.19" y1="706.256" x2="255.884" y2="713.683"/>
				
					<line fill="none" stroke="#FFFFFF" stroke-width="1.5" stroke-linecap="round" stroke-linejoin="round" x1="265.19" y1="717.585" x2="259.271" y2="710.98"/>
			</g>
		</g>
	</g>
	
		<line fill="none" stroke="#000000" stroke-width="2.5" stroke-linecap="round" x1="329.024" y1="715.21" x2="352.485" y2="691.751"/>
	<g>
		
			<line fill="none" stroke="#000000" stroke-width="2.5" stroke-linecap="round" x1="541.42" y1="867.361" x2="541.42" y2="843.802"/>
		
			<line fill="none" stroke="#000000" stroke-width="2.5" stroke-linecap="round" x1="541.42" y1="867.361" x2="541.42" y2="843.802"/>
		
			<line fill="none" stroke="#000000" stroke-width="2.5" stroke-linecap="round" x1="553.199" y1="855.582" x2="529.64" y2="855.582"/>
	</g>
	
		<line fill="none" stroke="#000000" stroke-width="2.5" stroke-linecap="round" x1="533.178" y1="703.48" x2="549.662" y2="703.48"/>
	<g>
		
			<line fill="none" stroke="#000000" stroke-width="2.5" stroke-linecap="round" x1="441.942" y1="715.23" x2="441.942" y2="691.731"/>
		
			<line fill="none" stroke="#000000" stroke-width="2.5" stroke-linecap="round" x1="441.942" y1="715.23" x2="441.942" y2="691.731"/>
		
			<line fill="none" stroke="#000000" stroke-width="2.5" stroke-linecap="round" x1="453.692" y1="703.48" x2="430.19" y2="703.48"/>
		
			<line fill="none" stroke="#000000" stroke-width="2.5" stroke-linecap="round" x1="450.251" y1="711.789" x2="433.632" y2="695.172"/>
		
			<line fill="none" stroke="#000000" stroke-width="2.5" stroke-linecap="round" x1="450.251" y1="711.789" x2="433.632" y2="695.172"/>
		
			<line fill="none" stroke="#000000" stroke-width="2.5" stroke-linecap="round" x1="450.251" y1="695.172" x2="433.632" y2="711.789"/>
	</g>
	<g>
		<path fill="none" stroke="#000000" stroke-width="1.5" stroke-linecap="round" stroke-linejoin="round" d="M252.677,1001.004
			c2.395,0,4.453,2.558,4.453,5.684c0,3.125-2.059,5.633-4.453,5.633l-4.023,0.016v-11.318L252.677,1001.004z"/>
		<g>
			<polyline fill="none" stroke="#000000" stroke-width="1.5" stroke-linecap="round" stroke-linejoin="round" points="
				229.228,1001.039 221.987,1001.039 221.987,1012.336 229.228,1012.336 			"/>
			
				<line fill="none" stroke="#000000" stroke-width="1.5" stroke-linecap="round" stroke-linejoin="round" x1="227.089" y1="1006.332" x2="221.987" y2="1006.332"/>
		</g>
		<polyline fill="none" stroke="#000000" stroke-width="1.5" stroke-linecap="round" stroke-linejoin="round" points="
			234.7,1012.336 234.7,1001.007 243.014,1012.336 243.014,1001.007 		"/>
	</g>
	<g>
		<g>
			<path fill="none" stroke="#000000" stroke-width="1.5" stroke-linecap="round" stroke-linejoin="round" d="M448.756,989.826
				c-1.037-1.142-2.532-1.857-4.195-1.857c-3.128,0-5.665,2.535-5.665,5.664s2.537,5.665,5.665,5.665
				c1.884,0,3.554-0.92,4.584-2.336v-3.329h-2.155"/>
			<path fill="none" stroke="#000000" stroke-width="1.5" stroke-linecap="round" stroke-linejoin="round" d="M415.597,993.633
				h4.164c1.564,0,2.832-1.268,2.832-2.833c0-1.563-1.268-2.831-2.832-2.831h-4.164v11.329"/>
			<g>
				<polyline fill="none" stroke="#000000" stroke-width="1.5" stroke-linecap="round" stroke-linejoin="round" points="
					425.916,999.298 430.62,988 435.323,999.298 				"/>
				
					<line fill="none" stroke="#000000" stroke-width="1.5" stroke-linecap="round" stroke-linejoin="round" x1="427.151" y1="996.332" x2="434.089" y2="996.332"/>
			</g>
			<g>
				<polyline fill="none" stroke="#000000" stroke-width="1.5" stroke-linecap="round" stroke-linejoin="round" points="
					461.007,988 453.767,988 453.767,999.298 461.007,999.298 				"/>
				
					<line fill="none" stroke="#000000" stroke-width="1.5" stroke-linecap="round" stroke-linejoin="round" x1="458.868" y1="993.293" x2="453.767" y2="993.293"/>
			</g>
		</g>
		<g>
			
				<circle fill="none" stroke="#000000" stroke-width="1.5" stroke-linecap="round" stroke-linejoin="round" cx="428.906" cy="1010.633" r="5.665"/>
			<path fill="none" stroke="#000000" stroke-width="1.5" stroke-linecap="round" stroke-linejoin="round" d="M414.665,1004.965
				c2.394,0,4.452,2.559,4.452,5.685c0,3.124-2.059,5.633-4.452,5.633l-4.023,0.016v-11.317L414.665,1004.965z"/>
			<polyline fill="none" stroke="#000000" stroke-width="1.5" stroke-linecap="round" stroke-linejoin="round" points="
				438.521,1004.969 442.058,1016.298 445.593,1004.969 449.129,1016.298 452.665,1004.969 			"/>
			<polyline fill="none" stroke="#000000" stroke-width="1.5" stroke-linecap="round" stroke-linejoin="round" points="
				456.962,1016.298 456.962,1004.969 465.962,1016.298 465.962,1004.969 			"/>
		</g>
	</g>
	<g>
		<path fill="none" stroke="#000000" stroke-width="1.5" stroke-linecap="round" stroke-linejoin="round" d="M427.281,1098
			c2.395,0,4.453,2.558,4.453,5.684c0,3.125-2.059,5.633-4.453,5.633l-4.022,0.016v-11.317L427.281,1098z"/>
		<g>
			<polyline fill="none" stroke="#000000" stroke-width="1.5" stroke-linecap="round" stroke-linejoin="round" points="
				444.089,1098.035 436.848,1098.035 436.848,1109.332 444.089,1109.332 			"/>
			
				<line fill="none" stroke="#000000" stroke-width="1.5" stroke-linecap="round" stroke-linejoin="round" x1="441.949" y1="1103.328" x2="436.848" y2="1103.328"/>
		</g>
		<polyline fill="none" stroke="#000000" stroke-width="1.5" stroke-linecap="round" stroke-linejoin="round" points="
			449.68,1098.003 449.68,1109.332 455.977,1109.332 		"/>
	</g>
	<g>
		<g>
			<path fill="none" stroke="#000000" stroke-width="1.5" stroke-linecap="round" stroke-linejoin="round" d="M439.212,807.003
				v6.995c0,2.394-1.939,4.334-4.333,4.334s-4.334-1.94-4.334-4.334v-6.995"/>
			<path fill="none" stroke="#000000" stroke-width="1.5" stroke-linecap="round" stroke-linejoin="round" d="M444.597,812.667
				h4.164c1.564,0,2.832-1.268,2.832-2.833c0-1.563-1.268-2.831-2.832-2.831h-4.164v11.329"/>
		</g>
		<g>
			<path fill="none" stroke="#000000" stroke-width="1.5" stroke-linecap="round" stroke-linejoin="round" d="M451.522,791.86
				c-1.037-1.142-2.533-1.857-4.195-1.857c-3.129,0-5.665,2.535-5.665,5.664s2.536,5.665,5.665,5.665
				c1.883,0,3.554-0.92,4.584-2.336v-3.329h-2.156"/>
			<path fill="none" stroke="#000000" stroke-width="1.5" stroke-linecap="round" stroke-linejoin="round" d="M418.363,795.667
				h4.163c1.565,0,2.833-1.268,2.833-2.833c0-1.563-1.268-2.831-2.833-2.831h-4.163v11.329"/>
			<g>
				<polyline fill="none" stroke="#000000" stroke-width="1.5" stroke-linecap="round" stroke-linejoin="round" points="
					428.683,801.332 433.386,790.034 438.089,801.332 				"/>
				
					<line fill="none" stroke="#000000" stroke-width="1.5" stroke-linecap="round" stroke-linejoin="round" x1="429.917" y1="798.366" x2="436.854" y2="798.366"/>
			</g>
			<g>
				<polyline fill="none" stroke="#000000" stroke-width="1.5" stroke-linecap="round" stroke-linejoin="round" points="
					463.772,790.034 456.532,790.034 456.532,801.332 463.772,801.332 				"/>
				
					<line fill="none" stroke="#000000" stroke-width="1.5" stroke-linecap="round" stroke-linejoin="round" x1="461.634" y1="795.327" x2="456.532" y2="795.327"/>
			</g>
		</g>
	</g>
	<g>
		
			<circle fill="none" stroke="#000000" stroke-width="1.5" stroke-linecap="round" stroke-linejoin="round" cx="231.753" cy="803.332" r="5.665"/>
		<g>
			<polyline fill="none" stroke="#000000" stroke-width="1.5" stroke-linecap="round" stroke-linejoin="round" points="
				265.02,797.699 257.778,797.699 257.778,808.997 265.02,808.997 			"/>
			
				<line fill="none" stroke="#000000" stroke-width="1.5" stroke-linecap="round" stroke-linejoin="round" x1="262.88" y1="802.992" x2="257.778" y2="802.992"/>
		</g>
		<g>
			
				<line fill="none" stroke="#000000" stroke-width="1.5" stroke-linecap="round" stroke-linejoin="round" x1="213.123" y1="808.997" x2="213.123" y2="797.668"/>
			
				<line fill="none" stroke="#000000" stroke-width="1.5" stroke-linecap="round" stroke-linejoin="round" x1="221.837" y1="808.997" x2="221.837" y2="797.668"/>
			
				<line fill="none" stroke="#000000" stroke-width="1.5" stroke-linecap="round" stroke-linejoin="round" x1="221.837" y1="802.663" x2="213.123" y2="802.663"/>
		</g>
		<polyline fill="none" stroke="#000000" stroke-width="1.5" stroke-linecap="round" stroke-linejoin="round" points="
			241.888,808.997 241.888,797.668 247.354,808.13 252.821,797.668 252.821,808.997 		"/>
	</g>
	<g>
		
			<line fill="none" stroke="#000000" stroke-width="1.5" stroke-linecap="round" stroke-linejoin="round" x1="277.222" y1="1111.661" x2="277.222" y2="1100.332"/>
		<polyline fill="none" stroke="#000000" stroke-width="1.5" stroke-linecap="round" stroke-linejoin="round" points="
			282.774,1111.661 282.774,1100.332 291.089,1111.661 291.089,1100.332 		"/>
		
			<path fill="none" stroke="#000000" stroke-width="1.5" stroke-linecap="round" stroke-linejoin="round" stroke-miterlimit="10" d="
			M304.901,1101.918c-0.164-0.286-0.402-0.533-0.695-0.72l0,0c-0.881-0.563-1.937-0.867-3.02-0.867c-1.084,0-2.14,0.303-3.021,0.867
			l0,0c-0.593,0.379-0.946,0.992-0.946,1.645c0,0.652,0.354,1.264,0.946,1.644l0,0c0.622,0.398,1.337,0.668,2.089,0.791l0,0
			l2.068,0.337c0.921,0.15,1.793,0.48,2.553,0.967l0,0c0.727,0.465,1.156,1.213,1.156,2.01c0,0.797-0.43,1.545-1.156,2.01l0,0
			c-1.074,0.689-2.365,1.059-3.689,1.059s-2.615-0.37-3.691-1.059l0,0c-0.357-0.229-0.649-0.53-0.85-0.88l0,0"/>
	</g>
	
		<ellipse fill="none" stroke="#000000" stroke-width="2.5" stroke-linecap="round" stroke-linejoin="round" cx="290.312" cy="508.54" rx="9.775" ry="11.796"/>
	<g>
		
			<ellipse fill="none" stroke="#000000" stroke-width="2.5" stroke-linecap="round" stroke-linejoin="round" cx="442.376" cy="314.104" rx="8.431" ry="7.653"/>
		<path fill="none" stroke="#000000" stroke-width="2.5" stroke-linecap="round" stroke-linejoin="round" d="M435.482,318.509
			c-1.935-2.263-2.407-5.34-2.407-8.899c0-6.848,5.035-11.503,9.564-11.503c2.309,0,4.438,0.366,6.129,1.667"/>
	</g>
	<g>
		
			<ellipse fill="none" stroke="#000000" stroke-width="2.5" stroke-linecap="round" stroke-linejoin="round" cx="441.506" cy="204.061" rx="8.431" ry="7.653"/>
		<path fill="none" stroke="#000000" stroke-width="2.5" stroke-linecap="round" stroke-linejoin="round" d="M448.399,199.656
			c1.935,2.262,2.407,5.339,2.407,8.899c0,6.847-5.035,11.502-9.564,11.502c-2.309,0-4.438-0.366-6.129-1.667"/>
	</g>
	<g>
		<path fill="none" stroke="#000000" stroke-width="2.5" stroke-linecap="round" stroke-linejoin="round" d="M442.688,406.938
			c4.33,0.561,7.623,3.339,7.623,6.681c0,3.748-4.134,6.784-9.237,6.784c-3.09,0-5.824-1.114-7.502-2.823"/>
		<path fill="none" stroke="#000000" stroke-width="2.5" stroke-linecap="round" stroke-linejoin="round" d="M435.231,399.003
			c1.32-1.313,3.508-2.173,5.982-2.173c4.035,0,7.307,2.287,7.307,5.105c0,2.467-2.504,4.527-5.833,5.003"/>
	</g>
	<g>
		<g>
			<polyline fill="none" stroke="#000000" stroke-width="1.5" stroke-linecap="round" stroke-linejoin="round" points="
				556.09,454.794 549.703,454.794 549.703,466.091 556.09,466.091 			"/>
			
				<line fill="none" stroke="#000000" stroke-width="1.5" stroke-linecap="round" stroke-linejoin="round" x1="554.203" y1="460.086" x2="549.703" y2="460.086"/>
		</g>
		<g>
			<polyline fill="none" stroke="#000000" stroke-width="1.5" stroke-linecap="round" stroke-linejoin="round" points="
				520.899,454.794 514.513,454.794 514.513,466.091 520.899,466.091 			"/>
			
				<line fill="none" stroke="#000000" stroke-width="1.5" stroke-linecap="round" stroke-linejoin="round" x1="519.012" y1="460.086" x2="514.513" y2="460.086"/>
		</g>
		<polyline fill="none" stroke="#000000" stroke-width="1.5" stroke-linecap="round" stroke-linejoin="round" points="
			526.5,466.091 526.5,454.762 533.834,466.091 533.834,454.762 		"/>
		<g>
			
				<line fill="none" stroke="#000000" stroke-width="1.5" stroke-linecap="round" stroke-linejoin="round" x1="537.781" y1="454.762" x2="545.381" y2="454.762"/>
			
				<line fill="none" stroke="#000000" stroke-width="1.5" stroke-linecap="round" stroke-linejoin="round" x1="541.582" y1="466.091" x2="541.582" y2="454.762"/>
		</g>
		<g>
			<path fill="none" stroke="#000000" stroke-width="1.5" stroke-linecap="round" stroke-linejoin="round" d="M561.691,460.426
				h4.058c1.38,0,2.499-1.268,2.499-2.833s-1.119-2.832-2.499-2.832h-4.058v11.33"/>
			
				<line fill="none" stroke="#000000" stroke-width="1.5" stroke-linecap="round" stroke-linejoin="round" x1="565.626" y1="460.512" x2="568.211" y2="466.091"/>
		</g>
	</g>
	<g>
		
			<line fill="none" stroke="#000000" stroke-width="2.5" stroke-linecap="round" x1="541.42" y1="273.361" x2="541.42" y2="249.802"/>
		
			<line fill="none" stroke="#000000" stroke-width="2.5" stroke-linecap="round" x1="541.42" y1="273.361" x2="541.42" y2="249.802"/>
		
			<line fill="none" stroke="#000000" stroke-width="2.5" stroke-linecap="round" x1="553.199" y1="261.582" x2="529.64" y2="261.582"/>
	</g>
	<polyline fill="none" stroke="#000000" stroke-width="2.5" stroke-linecap="round" stroke-linejoin="round" points="
		246.481,321.713 246.481,298.15 231.241,315.364 252.552,315.364 	"/>
	<path fill="none" stroke="#000000" stroke-width="2.5" stroke-linecap="round" stroke-linejoin="round" d="M332.679,318.134
		c1.504,2.109,4.294,3.525,7.489,3.525c4.786,0,8.664-3.173,8.664-7.088c0-3.912-3.878-7.086-8.664-7.086
		c-3.123,0-5.861,1.354-7.385,3.38l1.468-12.661h11.783"/>
	<g>
		
			<ellipse fill="none" stroke="#000000" stroke-width="2.5" stroke-linecap="round" stroke-linejoin="round" cx="340.755" cy="213.372" rx="8.195" ry="6.588"/>
		
			<ellipse fill="none" stroke="#000000" stroke-width="2.5" stroke-linecap="round" stroke-linejoin="round" cx="340.754" cy="201.645" rx="6.757" ry="5.142"/>
	</g>
	
		<line fill="none" stroke="#000000" stroke-width="2.5" stroke-linecap="round" stroke-linejoin="round" x1="241.896" y1="420.344" x2="241.896" y2="396.889"/>
	<path fill="none" stroke="#000000" stroke-width="2.5" stroke-linecap="round" stroke-linejoin="round" d="M350.001,420.348H331.51
		c0,0,2.231-8.215,12.007-10.373c4.373-0.967,6.484-3.374,6.484-6.412c0-3.688-4.038-6.677-9.018-6.677
		c-4.141,0-7.633,2.068-8.689,4.887"/>
	<path fill="none" stroke="#000000" stroke-width="2.5" stroke-linecap="round" stroke-linejoin="round" d="M232.987,196.505h17.818
		c-5.117,2.896-10.896,13.709-10.896,23.455"/>
	
		<circle fill="none" stroke="#000000" stroke-width="2.5" stroke-linecap="round" stroke-linejoin="round" cx="442.089" cy="508.542" r="1.25"/>
	<g>
		<g>
			<path fill="none" stroke="#000000" stroke-width="1.5" stroke-linecap="round" stroke-linejoin="round" d="M244.468,95.29v6.996
				c0,2.394-1.939,4.333-4.332,4.333c-2.395,0-4.334-1.939-4.334-4.333V95.29"/>
			<polyline fill="none" stroke="#000000" stroke-width="1.5" stroke-linecap="round" stroke-linejoin="round" points="
				249.511,106.619 249.511,95.29 254.978,105.752 260.444,95.29 260.444,106.619 			"/>
			<polyline fill="none" stroke="#000000" stroke-width="1.5" stroke-linecap="round" stroke-linejoin="round" points="
				222.444,106.619 222.444,95.29 230.759,106.619 230.759,95.29 			"/>
		</g>
		<g>
			<path fill="none" stroke="#000000" stroke-width="1.5" stroke-linecap="round" stroke-linejoin="round" d="M251.638,122.201
				c-1.09,0.913-2.535,1.471-4.121,1.471c-3.387,0-6.133-2.537-6.133-5.666c0-3.128,2.746-5.665,6.133-5.665
				c1.586,0,3.035,0.558,4.123,1.472"/>
			
				<circle fill="none" stroke="#000000" stroke-width="1.5" stroke-linecap="round" stroke-linejoin="round" cx="232.406" cy="117.92" r="5.665"/>
			<polyline fill="none" stroke="#000000" stroke-width="1.5" stroke-linecap="round" stroke-linejoin="round" points="
				217.698,112.256 217.698,123.585 224.515,123.585 			"/>
			<g>
				
					<line fill="none" stroke="#000000" stroke-width="1.5" stroke-linecap="round" stroke-linejoin="round" x1="255.884" y1="123.585" x2="255.884" y2="112.256"/>
				
					<line fill="none" stroke="#000000" stroke-width="1.5" stroke-linecap="round" stroke-linejoin="round" x1="265.19" y1="112.256" x2="255.884" y2="119.683"/>
				
					<line fill="none" stroke="#000000" stroke-width="1.5" stroke-linecap="round" stroke-linejoin="round" x1="265.19" y1="123.585" x2="259.271" y2="116.98"/>
			</g>
		</g>
	</g>
	
		<line fill="none" stroke="#000000" stroke-width="2.5" stroke-linecap="round" x1="329.024" y1="121.21" x2="352.485" y2="97.751"/>
	
		<line fill="none" stroke="#000000" stroke-width="2.5" stroke-linecap="round" x1="533.178" y1="109.48" x2="549.662" y2="109.48"/>
	<g>
		
			<line fill="none" stroke="#000000" stroke-width="2.5" stroke-linecap="round" x1="441.942" y1="121.23" x2="441.942" y2="97.731"/>
		
			<line fill="none" stroke="#000000" stroke-width="2.5" stroke-linecap="round" x1="441.942" y1="121.23" x2="441.942" y2="97.731"/>
		
			<line fill="none" stroke="#000000" stroke-width="2.5" stroke-linecap="round" x1="453.692" y1="109.48" x2="430.19" y2="109.48"/>
		
			<line fill="none" stroke="#000000" stroke-width="2.5" stroke-linecap="round" x1="450.251" y1="117.789" x2="433.632" y2="101.172"/>
		
			<line fill="none" stroke="#000000" stroke-width="2.5" stroke-linecap="round" x1="450.251" y1="117.789" x2="433.632" y2="101.172"/>
		
			<line fill="none" stroke="#000000" stroke-width="2.5" stroke-linecap="round" x1="450.251" y1="101.172" x2="433.632" y2="117.789"/>
	</g>
	<g>
		<polygon points="343.725,806.998 337.5,806.998 340.612,798.867 343.725,806.998 		"/>
		<path d="M340.611,793.277l6.021,15.721h-12.04L340.611,793.277 M340.611,804.462l-0.205,0.536h0.411L340.611,804.462
			L340.611,804.462z"/>
	</g>
	<g>
		<polygon points="340.337,1005.928 337.228,997.801 343.449,997.801 340.337,1005.928 		"/>
		<path d="M346.358,995.8l-6.021,15.724l-6.017-15.724H346.358 M340.544,999.8h-0.409l0.204,0.534L340.544,999.8L340.544,999.8z"/>
	</g>
	<g>
		<polygon points="246.313,906.983 238.184,903.873 246.313,900.758 246.313,906.983 		"/>
		<path d="M248.314,897.852v12.039l-15.722-6.019L248.314,897.852 M244.314,903.666l-0.536,0.205l0.536,0.205V903.666
			L244.314,903.666z"/>
	</g>
	<g>
		<polygon points="436.112,906.631 436.112,900.411 444.237,903.521 436.112,906.631 		"/>
		<path d="M434.112,897.502l15.725,6.02l-15.725,6.019V897.502 M438.112,903.316v0.409l0.535-0.205L438.112,903.316L438.112,903.316
			z"/>
	</g>
</g>
</svg>
